M48
;DRILL file {KiCad (5.0.0-3-g5ebb6b6)} date Thursday, May 30, 2019 at 01:54:03 PM
;FORMAT={-:-/ absolute / inch / decimal}
FMAT,2
INCH,TZ
T1C0.0197
T2C0.0217
T3C0.0300
T4C0.0400
T5C0.0402
T6C0.1575
%
G90
G05
M72
T3
X6.1969Y-5.878
X6.1969Y-5.9764
X6.1969Y-6.0748
X6.3268Y-5.878
X6.3268Y-5.9764
X6.3268Y-6.0748
T4
X6.3394Y-2.1083
X6.3394Y-2.2083
X6.4394Y-2.1083
X6.4394Y-2.2083
X6.5394Y-2.1083
X6.5394Y-2.2083
X4.1898Y-2.8602
X4.1898Y-2.9602
X4.2898Y-2.8602
X4.2898Y-2.9602
X4.3898Y-2.8602
X4.3898Y-2.9602
X4.1898Y-6.063
X4.1898Y-6.163
X4.2898Y-6.063
X4.2898Y-6.163
X4.3898Y-6.063
X4.3898Y-6.163
X6.3394Y-5.3346
X6.3394Y-5.4346
X6.4394Y-5.3346
X6.4394Y-5.4346
X6.5394Y-5.3346
X6.5394Y-5.4346
T5
X5.0539Y-2.8547
X5.6441Y-2.8547
T6
X4.3457Y-1.5008
X6.3512Y-1.2783
T1
X4.4255Y-6.9208G85X4.4374Y-6.8981
G05
X4.67Y-7.048G85X4.6818Y-7.0253
G05
T2
X4.5207Y-6.836G85X4.5102Y-6.8306
G05
X4.6953Y-6.9269G85X4.6848Y-6.9215
G05
T0
M30
