G04 #@! TF.GenerationSoftware,KiCad,Pcbnew,(5.0.0-3-g5ebb6b6)*
G04 #@! TF.CreationDate,2019-05-30T13:54:23-04:00*
G04 #@! TF.ProjectId,HTHBadgeFinal,485448426164676546696E616C2E6B69,rev?*
G04 #@! TF.SameCoordinates,Original*
G04 #@! TF.FileFunction,Copper,L2,Bot,Signal*
G04 #@! TF.FilePolarity,Positive*
%FSLAX46Y46*%
G04 Gerber Fmt 4.6, Leading zero omitted, Abs format (unit mm)*
G04 Created by KiCad (PCBNEW (5.0.0-3-g5ebb6b6)) date Thursday, May 30, 2019 at 01:54:23 PM*
%MOMM*%
%LPD*%
G01*
G04 APERTURE LIST*
G04 #@! TA.AperFunction,ComponentPad*
%ADD10C,1.727200*%
G04 #@! TD*
G04 #@! TA.AperFunction,ComponentPad*
%ADD11O,1.727200X1.727200*%
G04 #@! TD*
G04 #@! TA.AperFunction,ComponentPad*
%ADD12R,1.727200X1.727200*%
G04 #@! TD*
G04 #@! TA.AperFunction,Conductor*
%ADD13C,0.100000*%
G04 #@! TD*
G04 #@! TA.AperFunction,SMDPad,CuDef*
%ADD14C,0.900000*%
G04 #@! TD*
G04 #@! TA.AperFunction,SMDPad,CuDef*
%ADD15C,1.000000*%
G04 #@! TD*
G04 #@! TA.AperFunction,ComponentPad*
%ADD16C,1.524000*%
G04 #@! TD*
G04 #@! TA.AperFunction,ComponentPad*
%ADD17C,1.800000*%
G04 #@! TD*
G04 #@! TA.AperFunction,SMDPad,CuDef*
%ADD18R,0.960000X1.760000*%
G04 #@! TD*
G04 #@! TA.AperFunction,SMDPad,CuDef*
%ADD19R,3.260000X1.760000*%
G04 #@! TD*
G04 #@! TA.AperFunction,SMDPad,CuDef*
%ADD20C,0.400000*%
G04 #@! TD*
G04 #@! TA.AperFunction,ComponentPad*
%ADD21C,0.950000*%
G04 #@! TD*
G04 #@! TA.AperFunction,Conductor*
%ADD22C,0.950000*%
G04 #@! TD*
G04 #@! TA.AperFunction,ComponentPad*
%ADD23C,1.000000*%
G04 #@! TD*
G04 #@! TA.AperFunction,Conductor*
%ADD24C,1.000000*%
G04 #@! TD*
G04 #@! TA.AperFunction,ComponentPad*
%ADD25C,5.000000*%
G04 #@! TD*
G04 #@! TA.AperFunction,Conductor*
%ADD26C,0.250000*%
G04 #@! TD*
G04 #@! TA.AperFunction,Conductor*
%ADD27C,0.254000*%
G04 #@! TD*
G04 APERTURE END LIST*
D10*
G04 #@! TO.P,X3,5*
G04 #@! TO.N,Net-(X3-Pad5)*
X166100000Y-53550000D03*
G04 #@! TO.P,X3,6*
G04 #@! TO.N,Net-(X3-Pad6)*
X166100000Y-56090000D03*
D11*
G04 #@! TO.P,X3,3*
G04 #@! TO.N,Net-(X3-Pad3)*
X163560000Y-53550000D03*
G04 #@! TO.P,X3,4*
G04 #@! TO.N,Net-(X3-Pad4)*
X163560000Y-56090000D03*
G04 #@! TO.P,X3,1*
G04 #@! TO.N,Net-(SW1-Pad2)*
X161020000Y-53550000D03*
D12*
G04 #@! TO.P,X3,2*
G04 #@! TO.N,GND*
X161020000Y-56090000D03*
G04 #@! TD*
D10*
G04 #@! TO.P,X2,5*
G04 #@! TO.N,Net-(X2-Pad5)*
X111500000Y-72650000D03*
G04 #@! TO.P,X2,6*
G04 #@! TO.N,Net-(X2-Pad6)*
X111500000Y-75190000D03*
D11*
G04 #@! TO.P,X2,3*
G04 #@! TO.N,Net-(X2-Pad3)*
X108960000Y-72650000D03*
G04 #@! TO.P,X2,4*
G04 #@! TO.N,Net-(X2-Pad4)*
X108960000Y-75190000D03*
G04 #@! TO.P,X2,1*
G04 #@! TO.N,Net-(SW1-Pad2)*
X106420000Y-72650000D03*
D12*
G04 #@! TO.P,X2,2*
G04 #@! TO.N,GND*
X106420000Y-75190000D03*
G04 #@! TD*
D10*
G04 #@! TO.P,X4,5*
G04 #@! TO.N,Net-(X4-Pad5)*
X166100000Y-135500000D03*
G04 #@! TO.P,X4,6*
G04 #@! TO.N,Net-(X4-Pad6)*
X166100000Y-138040000D03*
D11*
G04 #@! TO.P,X4,3*
G04 #@! TO.N,Net-(X4-Pad3)*
X163560000Y-135500000D03*
G04 #@! TO.P,X4,4*
G04 #@! TO.N,Net-(X4-Pad4)*
X163560000Y-138040000D03*
G04 #@! TO.P,X4,1*
G04 #@! TO.N,Net-(SW1-Pad2)*
X161020000Y-135500000D03*
D12*
G04 #@! TO.P,X4,2*
G04 #@! TO.N,GND*
X161020000Y-138040000D03*
G04 #@! TD*
D10*
G04 #@! TO.P,X1,5*
G04 #@! TO.N,Net-(X1-Pad5)*
X111500000Y-154000000D03*
G04 #@! TO.P,X1,6*
G04 #@! TO.N,Net-(X1-Pad6)*
X111500000Y-156540000D03*
D11*
G04 #@! TO.P,X1,3*
G04 #@! TO.N,Net-(X1-Pad3)*
X108960000Y-154000000D03*
G04 #@! TO.P,X1,4*
G04 #@! TO.N,Net-(X1-Pad4)*
X108960000Y-156540000D03*
G04 #@! TO.P,X1,1*
G04 #@! TO.N,Net-(SW1-Pad2)*
X106420000Y-154000000D03*
D12*
G04 #@! TO.P,X1,2*
G04 #@! TO.N,GND*
X106420000Y-156540000D03*
G04 #@! TD*
D13*
G04 #@! TO.N,Net-(C1-Pad1)*
G04 #@! TO.C,D1*
G36*
X120893822Y-164150433D02*
X120902558Y-164151729D01*
X120911126Y-164153875D01*
X120919442Y-164156851D01*
X120927426Y-164160627D01*
X120935001Y-164165168D01*
X120942095Y-164170429D01*
X120948640Y-164176360D01*
X120954571Y-164182905D01*
X120959832Y-164189999D01*
X120964373Y-164197574D01*
X120968149Y-164205558D01*
X120971125Y-164213874D01*
X120973271Y-164222442D01*
X120974567Y-164231178D01*
X120975000Y-164240000D01*
X120975000Y-164960000D01*
X120974567Y-164968822D01*
X120973271Y-164977558D01*
X120971125Y-164986126D01*
X120968149Y-164994442D01*
X120964373Y-165002426D01*
X120959832Y-165010001D01*
X120954571Y-165017095D01*
X120948640Y-165023640D01*
X120942095Y-165029571D01*
X120935001Y-165034832D01*
X120927426Y-165039373D01*
X120919442Y-165043149D01*
X120911126Y-165046125D01*
X120902558Y-165048271D01*
X120893822Y-165049567D01*
X120885000Y-165050000D01*
X120115000Y-165050000D01*
X120106178Y-165049567D01*
X120097442Y-165048271D01*
X120088874Y-165046125D01*
X120080558Y-165043149D01*
X120072574Y-165039373D01*
X120064999Y-165034832D01*
X120057905Y-165029571D01*
X120051360Y-165023640D01*
X120045429Y-165017095D01*
X120040168Y-165010001D01*
X120035627Y-165002426D01*
X120031851Y-164994442D01*
X120028875Y-164986126D01*
X120026729Y-164977558D01*
X120025433Y-164968822D01*
X120025000Y-164960000D01*
X120025000Y-164240000D01*
X120025433Y-164231178D01*
X120026729Y-164222442D01*
X120028875Y-164213874D01*
X120031851Y-164205558D01*
X120035627Y-164197574D01*
X120040168Y-164189999D01*
X120045429Y-164182905D01*
X120051360Y-164176360D01*
X120057905Y-164170429D01*
X120064999Y-164165168D01*
X120072574Y-164160627D01*
X120080558Y-164156851D01*
X120088874Y-164153875D01*
X120097442Y-164151729D01*
X120106178Y-164150433D01*
X120115000Y-164150000D01*
X120885000Y-164150000D01*
X120893822Y-164150433D01*
X120893822Y-164150433D01*
G37*
D14*
G04 #@! TD*
G04 #@! TO.P,D1,1*
G04 #@! TO.N,Net-(C1-Pad1)*
X120500000Y-164600000D03*
D13*
G04 #@! TO.N,Net-(D1-Pad2)*
G04 #@! TO.C,D1*
G36*
X120893822Y-167300433D02*
X120902558Y-167301729D01*
X120911126Y-167303875D01*
X120919442Y-167306851D01*
X120927426Y-167310627D01*
X120935001Y-167315168D01*
X120942095Y-167320429D01*
X120948640Y-167326360D01*
X120954571Y-167332905D01*
X120959832Y-167339999D01*
X120964373Y-167347574D01*
X120968149Y-167355558D01*
X120971125Y-167363874D01*
X120973271Y-167372442D01*
X120974567Y-167381178D01*
X120975000Y-167390000D01*
X120975000Y-168110000D01*
X120974567Y-168118822D01*
X120973271Y-168127558D01*
X120971125Y-168136126D01*
X120968149Y-168144442D01*
X120964373Y-168152426D01*
X120959832Y-168160001D01*
X120954571Y-168167095D01*
X120948640Y-168173640D01*
X120942095Y-168179571D01*
X120935001Y-168184832D01*
X120927426Y-168189373D01*
X120919442Y-168193149D01*
X120911126Y-168196125D01*
X120902558Y-168198271D01*
X120893822Y-168199567D01*
X120885000Y-168200000D01*
X120115000Y-168200000D01*
X120106178Y-168199567D01*
X120097442Y-168198271D01*
X120088874Y-168196125D01*
X120080558Y-168193149D01*
X120072574Y-168189373D01*
X120064999Y-168184832D01*
X120057905Y-168179571D01*
X120051360Y-168173640D01*
X120045429Y-168167095D01*
X120040168Y-168160001D01*
X120035627Y-168152426D01*
X120031851Y-168144442D01*
X120028875Y-168136126D01*
X120026729Y-168127558D01*
X120025433Y-168118822D01*
X120025000Y-168110000D01*
X120025000Y-167390000D01*
X120025433Y-167381178D01*
X120026729Y-167372442D01*
X120028875Y-167363874D01*
X120031851Y-167355558D01*
X120035627Y-167347574D01*
X120040168Y-167339999D01*
X120045429Y-167332905D01*
X120051360Y-167326360D01*
X120057905Y-167320429D01*
X120064999Y-167315168D01*
X120072574Y-167310627D01*
X120080558Y-167306851D01*
X120088874Y-167303875D01*
X120097442Y-167301729D01*
X120106178Y-167300433D01*
X120115000Y-167300000D01*
X120885000Y-167300000D01*
X120893822Y-167300433D01*
X120893822Y-167300433D01*
G37*
D14*
G04 #@! TD*
G04 #@! TO.P,D1,2*
G04 #@! TO.N,Net-(D1-Pad2)*
X120500000Y-167750000D03*
D13*
G04 #@! TO.N,GND*
G04 #@! TO.C,C4*
G36*
X141259802Y-166750482D02*
X141269509Y-166751921D01*
X141279028Y-166754306D01*
X141288268Y-166757612D01*
X141297140Y-166761808D01*
X141305557Y-166766853D01*
X141313439Y-166772699D01*
X141320711Y-166779289D01*
X141327301Y-166786561D01*
X141333147Y-166794443D01*
X141338192Y-166802860D01*
X141342388Y-166811732D01*
X141345694Y-166820972D01*
X141348079Y-166830491D01*
X141349518Y-166840198D01*
X141350000Y-166850000D01*
X141350000Y-167650000D01*
X141349518Y-167659802D01*
X141348079Y-167669509D01*
X141345694Y-167679028D01*
X141342388Y-167688268D01*
X141338192Y-167697140D01*
X141333147Y-167705557D01*
X141327301Y-167713439D01*
X141320711Y-167720711D01*
X141313439Y-167727301D01*
X141305557Y-167733147D01*
X141297140Y-167738192D01*
X141288268Y-167742388D01*
X141279028Y-167745694D01*
X141269509Y-167748079D01*
X141259802Y-167749518D01*
X141250000Y-167750000D01*
X140250000Y-167750000D01*
X140240198Y-167749518D01*
X140230491Y-167748079D01*
X140220972Y-167745694D01*
X140211732Y-167742388D01*
X140202860Y-167738192D01*
X140194443Y-167733147D01*
X140186561Y-167727301D01*
X140179289Y-167720711D01*
X140172699Y-167713439D01*
X140166853Y-167705557D01*
X140161808Y-167697140D01*
X140157612Y-167688268D01*
X140154306Y-167679028D01*
X140151921Y-167669509D01*
X140150482Y-167659802D01*
X140150000Y-167650000D01*
X140150000Y-166850000D01*
X140150482Y-166840198D01*
X140151921Y-166830491D01*
X140154306Y-166820972D01*
X140157612Y-166811732D01*
X140161808Y-166802860D01*
X140166853Y-166794443D01*
X140172699Y-166786561D01*
X140179289Y-166779289D01*
X140186561Y-166772699D01*
X140194443Y-166766853D01*
X140202860Y-166761808D01*
X140211732Y-166757612D01*
X140220972Y-166754306D01*
X140230491Y-166751921D01*
X140240198Y-166750482D01*
X140250000Y-166750000D01*
X141250000Y-166750000D01*
X141259802Y-166750482D01*
X141259802Y-166750482D01*
G37*
D15*
G04 #@! TD*
G04 #@! TO.P,C4,2*
G04 #@! TO.N,GND*
X140750000Y-167250000D03*
D13*
G04 #@! TO.N,Net-(C3-Pad1)*
G04 #@! TO.C,C4*
G36*
X141259802Y-164750482D02*
X141269509Y-164751921D01*
X141279028Y-164754306D01*
X141288268Y-164757612D01*
X141297140Y-164761808D01*
X141305557Y-164766853D01*
X141313439Y-164772699D01*
X141320711Y-164779289D01*
X141327301Y-164786561D01*
X141333147Y-164794443D01*
X141338192Y-164802860D01*
X141342388Y-164811732D01*
X141345694Y-164820972D01*
X141348079Y-164830491D01*
X141349518Y-164840198D01*
X141350000Y-164850000D01*
X141350000Y-165650000D01*
X141349518Y-165659802D01*
X141348079Y-165669509D01*
X141345694Y-165679028D01*
X141342388Y-165688268D01*
X141338192Y-165697140D01*
X141333147Y-165705557D01*
X141327301Y-165713439D01*
X141320711Y-165720711D01*
X141313439Y-165727301D01*
X141305557Y-165733147D01*
X141297140Y-165738192D01*
X141288268Y-165742388D01*
X141279028Y-165745694D01*
X141269509Y-165748079D01*
X141259802Y-165749518D01*
X141250000Y-165750000D01*
X140250000Y-165750000D01*
X140240198Y-165749518D01*
X140230491Y-165748079D01*
X140220972Y-165745694D01*
X140211732Y-165742388D01*
X140202860Y-165738192D01*
X140194443Y-165733147D01*
X140186561Y-165727301D01*
X140179289Y-165720711D01*
X140172699Y-165713439D01*
X140166853Y-165705557D01*
X140161808Y-165697140D01*
X140157612Y-165688268D01*
X140154306Y-165679028D01*
X140151921Y-165669509D01*
X140150482Y-165659802D01*
X140150000Y-165650000D01*
X140150000Y-164850000D01*
X140150482Y-164840198D01*
X140151921Y-164830491D01*
X140154306Y-164820972D01*
X140157612Y-164811732D01*
X140161808Y-164802860D01*
X140166853Y-164794443D01*
X140172699Y-164786561D01*
X140179289Y-164779289D01*
X140186561Y-164772699D01*
X140194443Y-164766853D01*
X140202860Y-164761808D01*
X140211732Y-164757612D01*
X140220972Y-164754306D01*
X140230491Y-164751921D01*
X140240198Y-164750482D01*
X140250000Y-164750000D01*
X141250000Y-164750000D01*
X141259802Y-164750482D01*
X141259802Y-164750482D01*
G37*
D15*
G04 #@! TD*
G04 #@! TO.P,C4,1*
G04 #@! TO.N,Net-(C3-Pad1)*
X140750000Y-165250000D03*
D13*
G04 #@! TO.N,Net-(C3-Pad1)*
G04 #@! TO.C,C3*
G36*
X139009802Y-164750482D02*
X139019509Y-164751921D01*
X139029028Y-164754306D01*
X139038268Y-164757612D01*
X139047140Y-164761808D01*
X139055557Y-164766853D01*
X139063439Y-164772699D01*
X139070711Y-164779289D01*
X139077301Y-164786561D01*
X139083147Y-164794443D01*
X139088192Y-164802860D01*
X139092388Y-164811732D01*
X139095694Y-164820972D01*
X139098079Y-164830491D01*
X139099518Y-164840198D01*
X139100000Y-164850000D01*
X139100000Y-165650000D01*
X139099518Y-165659802D01*
X139098079Y-165669509D01*
X139095694Y-165679028D01*
X139092388Y-165688268D01*
X139088192Y-165697140D01*
X139083147Y-165705557D01*
X139077301Y-165713439D01*
X139070711Y-165720711D01*
X139063439Y-165727301D01*
X139055557Y-165733147D01*
X139047140Y-165738192D01*
X139038268Y-165742388D01*
X139029028Y-165745694D01*
X139019509Y-165748079D01*
X139009802Y-165749518D01*
X139000000Y-165750000D01*
X138000000Y-165750000D01*
X137990198Y-165749518D01*
X137980491Y-165748079D01*
X137970972Y-165745694D01*
X137961732Y-165742388D01*
X137952860Y-165738192D01*
X137944443Y-165733147D01*
X137936561Y-165727301D01*
X137929289Y-165720711D01*
X137922699Y-165713439D01*
X137916853Y-165705557D01*
X137911808Y-165697140D01*
X137907612Y-165688268D01*
X137904306Y-165679028D01*
X137901921Y-165669509D01*
X137900482Y-165659802D01*
X137900000Y-165650000D01*
X137900000Y-164850000D01*
X137900482Y-164840198D01*
X137901921Y-164830491D01*
X137904306Y-164820972D01*
X137907612Y-164811732D01*
X137911808Y-164802860D01*
X137916853Y-164794443D01*
X137922699Y-164786561D01*
X137929289Y-164779289D01*
X137936561Y-164772699D01*
X137944443Y-164766853D01*
X137952860Y-164761808D01*
X137961732Y-164757612D01*
X137970972Y-164754306D01*
X137980491Y-164751921D01*
X137990198Y-164750482D01*
X138000000Y-164750000D01*
X139000000Y-164750000D01*
X139009802Y-164750482D01*
X139009802Y-164750482D01*
G37*
D15*
G04 #@! TD*
G04 #@! TO.P,C3,1*
G04 #@! TO.N,Net-(C3-Pad1)*
X138500000Y-165250000D03*
D13*
G04 #@! TO.N,GND*
G04 #@! TO.C,C3*
G36*
X139009802Y-166750482D02*
X139019509Y-166751921D01*
X139029028Y-166754306D01*
X139038268Y-166757612D01*
X139047140Y-166761808D01*
X139055557Y-166766853D01*
X139063439Y-166772699D01*
X139070711Y-166779289D01*
X139077301Y-166786561D01*
X139083147Y-166794443D01*
X139088192Y-166802860D01*
X139092388Y-166811732D01*
X139095694Y-166820972D01*
X139098079Y-166830491D01*
X139099518Y-166840198D01*
X139100000Y-166850000D01*
X139100000Y-167650000D01*
X139099518Y-167659802D01*
X139098079Y-167669509D01*
X139095694Y-167679028D01*
X139092388Y-167688268D01*
X139088192Y-167697140D01*
X139083147Y-167705557D01*
X139077301Y-167713439D01*
X139070711Y-167720711D01*
X139063439Y-167727301D01*
X139055557Y-167733147D01*
X139047140Y-167738192D01*
X139038268Y-167742388D01*
X139029028Y-167745694D01*
X139019509Y-167748079D01*
X139009802Y-167749518D01*
X139000000Y-167750000D01*
X138000000Y-167750000D01*
X137990198Y-167749518D01*
X137980491Y-167748079D01*
X137970972Y-167745694D01*
X137961732Y-167742388D01*
X137952860Y-167738192D01*
X137944443Y-167733147D01*
X137936561Y-167727301D01*
X137929289Y-167720711D01*
X137922699Y-167713439D01*
X137916853Y-167705557D01*
X137911808Y-167697140D01*
X137907612Y-167688268D01*
X137904306Y-167679028D01*
X137901921Y-167669509D01*
X137900482Y-167659802D01*
X137900000Y-167650000D01*
X137900000Y-166850000D01*
X137900482Y-166840198D01*
X137901921Y-166830491D01*
X137904306Y-166820972D01*
X137907612Y-166811732D01*
X137911808Y-166802860D01*
X137916853Y-166794443D01*
X137922699Y-166786561D01*
X137929289Y-166779289D01*
X137936561Y-166772699D01*
X137944443Y-166766853D01*
X137952860Y-166761808D01*
X137961732Y-166757612D01*
X137970972Y-166754306D01*
X137980491Y-166751921D01*
X137990198Y-166750482D01*
X138000000Y-166750000D01*
X139000000Y-166750000D01*
X139009802Y-166750482D01*
X139009802Y-166750482D01*
G37*
D15*
G04 #@! TD*
G04 #@! TO.P,C3,2*
G04 #@! TO.N,GND*
X138500000Y-167250000D03*
D13*
G04 #@! TO.N,GND*
G04 #@! TO.C,C2*
G36*
X125609802Y-166740482D02*
X125619509Y-166741921D01*
X125629028Y-166744306D01*
X125638268Y-166747612D01*
X125647140Y-166751808D01*
X125655557Y-166756853D01*
X125663439Y-166762699D01*
X125670711Y-166769289D01*
X125677301Y-166776561D01*
X125683147Y-166784443D01*
X125688192Y-166792860D01*
X125692388Y-166801732D01*
X125695694Y-166810972D01*
X125698079Y-166820491D01*
X125699518Y-166830198D01*
X125700000Y-166840000D01*
X125700000Y-167640000D01*
X125699518Y-167649802D01*
X125698079Y-167659509D01*
X125695694Y-167669028D01*
X125692388Y-167678268D01*
X125688192Y-167687140D01*
X125683147Y-167695557D01*
X125677301Y-167703439D01*
X125670711Y-167710711D01*
X125663439Y-167717301D01*
X125655557Y-167723147D01*
X125647140Y-167728192D01*
X125638268Y-167732388D01*
X125629028Y-167735694D01*
X125619509Y-167738079D01*
X125609802Y-167739518D01*
X125600000Y-167740000D01*
X124600000Y-167740000D01*
X124590198Y-167739518D01*
X124580491Y-167738079D01*
X124570972Y-167735694D01*
X124561732Y-167732388D01*
X124552860Y-167728192D01*
X124544443Y-167723147D01*
X124536561Y-167717301D01*
X124529289Y-167710711D01*
X124522699Y-167703439D01*
X124516853Y-167695557D01*
X124511808Y-167687140D01*
X124507612Y-167678268D01*
X124504306Y-167669028D01*
X124501921Y-167659509D01*
X124500482Y-167649802D01*
X124500000Y-167640000D01*
X124500000Y-166840000D01*
X124500482Y-166830198D01*
X124501921Y-166820491D01*
X124504306Y-166810972D01*
X124507612Y-166801732D01*
X124511808Y-166792860D01*
X124516853Y-166784443D01*
X124522699Y-166776561D01*
X124529289Y-166769289D01*
X124536561Y-166762699D01*
X124544443Y-166756853D01*
X124552860Y-166751808D01*
X124561732Y-166747612D01*
X124570972Y-166744306D01*
X124580491Y-166741921D01*
X124590198Y-166740482D01*
X124600000Y-166740000D01*
X125600000Y-166740000D01*
X125609802Y-166740482D01*
X125609802Y-166740482D01*
G37*
D15*
G04 #@! TD*
G04 #@! TO.P,C2,2*
G04 #@! TO.N,GND*
X125100000Y-167240000D03*
D13*
G04 #@! TO.N,Net-(C1-Pad1)*
G04 #@! TO.C,C2*
G36*
X125609802Y-164740482D02*
X125619509Y-164741921D01*
X125629028Y-164744306D01*
X125638268Y-164747612D01*
X125647140Y-164751808D01*
X125655557Y-164756853D01*
X125663439Y-164762699D01*
X125670711Y-164769289D01*
X125677301Y-164776561D01*
X125683147Y-164784443D01*
X125688192Y-164792860D01*
X125692388Y-164801732D01*
X125695694Y-164810972D01*
X125698079Y-164820491D01*
X125699518Y-164830198D01*
X125700000Y-164840000D01*
X125700000Y-165640000D01*
X125699518Y-165649802D01*
X125698079Y-165659509D01*
X125695694Y-165669028D01*
X125692388Y-165678268D01*
X125688192Y-165687140D01*
X125683147Y-165695557D01*
X125677301Y-165703439D01*
X125670711Y-165710711D01*
X125663439Y-165717301D01*
X125655557Y-165723147D01*
X125647140Y-165728192D01*
X125638268Y-165732388D01*
X125629028Y-165735694D01*
X125619509Y-165738079D01*
X125609802Y-165739518D01*
X125600000Y-165740000D01*
X124600000Y-165740000D01*
X124590198Y-165739518D01*
X124580491Y-165738079D01*
X124570972Y-165735694D01*
X124561732Y-165732388D01*
X124552860Y-165728192D01*
X124544443Y-165723147D01*
X124536561Y-165717301D01*
X124529289Y-165710711D01*
X124522699Y-165703439D01*
X124516853Y-165695557D01*
X124511808Y-165687140D01*
X124507612Y-165678268D01*
X124504306Y-165669028D01*
X124501921Y-165659509D01*
X124500482Y-165649802D01*
X124500000Y-165640000D01*
X124500000Y-164840000D01*
X124500482Y-164830198D01*
X124501921Y-164820491D01*
X124504306Y-164810972D01*
X124507612Y-164801732D01*
X124511808Y-164792860D01*
X124516853Y-164784443D01*
X124522699Y-164776561D01*
X124529289Y-164769289D01*
X124536561Y-164762699D01*
X124544443Y-164756853D01*
X124552860Y-164751808D01*
X124561732Y-164747612D01*
X124570972Y-164744306D01*
X124580491Y-164741921D01*
X124590198Y-164740482D01*
X124600000Y-164740000D01*
X125600000Y-164740000D01*
X125609802Y-164740482D01*
X125609802Y-164740482D01*
G37*
D15*
G04 #@! TD*
G04 #@! TO.P,C2,1*
G04 #@! TO.N,Net-(C1-Pad1)*
X125100000Y-165240000D03*
D13*
G04 #@! TO.N,Net-(C1-Pad1)*
G04 #@! TO.C,C1*
G36*
X123429802Y-164750482D02*
X123439509Y-164751921D01*
X123449028Y-164754306D01*
X123458268Y-164757612D01*
X123467140Y-164761808D01*
X123475557Y-164766853D01*
X123483439Y-164772699D01*
X123490711Y-164779289D01*
X123497301Y-164786561D01*
X123503147Y-164794443D01*
X123508192Y-164802860D01*
X123512388Y-164811732D01*
X123515694Y-164820972D01*
X123518079Y-164830491D01*
X123519518Y-164840198D01*
X123520000Y-164850000D01*
X123520000Y-165650000D01*
X123519518Y-165659802D01*
X123518079Y-165669509D01*
X123515694Y-165679028D01*
X123512388Y-165688268D01*
X123508192Y-165697140D01*
X123503147Y-165705557D01*
X123497301Y-165713439D01*
X123490711Y-165720711D01*
X123483439Y-165727301D01*
X123475557Y-165733147D01*
X123467140Y-165738192D01*
X123458268Y-165742388D01*
X123449028Y-165745694D01*
X123439509Y-165748079D01*
X123429802Y-165749518D01*
X123420000Y-165750000D01*
X122420000Y-165750000D01*
X122410198Y-165749518D01*
X122400491Y-165748079D01*
X122390972Y-165745694D01*
X122381732Y-165742388D01*
X122372860Y-165738192D01*
X122364443Y-165733147D01*
X122356561Y-165727301D01*
X122349289Y-165720711D01*
X122342699Y-165713439D01*
X122336853Y-165705557D01*
X122331808Y-165697140D01*
X122327612Y-165688268D01*
X122324306Y-165679028D01*
X122321921Y-165669509D01*
X122320482Y-165659802D01*
X122320000Y-165650000D01*
X122320000Y-164850000D01*
X122320482Y-164840198D01*
X122321921Y-164830491D01*
X122324306Y-164820972D01*
X122327612Y-164811732D01*
X122331808Y-164802860D01*
X122336853Y-164794443D01*
X122342699Y-164786561D01*
X122349289Y-164779289D01*
X122356561Y-164772699D01*
X122364443Y-164766853D01*
X122372860Y-164761808D01*
X122381732Y-164757612D01*
X122390972Y-164754306D01*
X122400491Y-164751921D01*
X122410198Y-164750482D01*
X122420000Y-164750000D01*
X123420000Y-164750000D01*
X123429802Y-164750482D01*
X123429802Y-164750482D01*
G37*
D15*
G04 #@! TD*
G04 #@! TO.P,C1,1*
G04 #@! TO.N,Net-(C1-Pad1)*
X122920000Y-165250000D03*
D13*
G04 #@! TO.N,GND*
G04 #@! TO.C,C1*
G36*
X123429802Y-166750482D02*
X123439509Y-166751921D01*
X123449028Y-166754306D01*
X123458268Y-166757612D01*
X123467140Y-166761808D01*
X123475557Y-166766853D01*
X123483439Y-166772699D01*
X123490711Y-166779289D01*
X123497301Y-166786561D01*
X123503147Y-166794443D01*
X123508192Y-166802860D01*
X123512388Y-166811732D01*
X123515694Y-166820972D01*
X123518079Y-166830491D01*
X123519518Y-166840198D01*
X123520000Y-166850000D01*
X123520000Y-167650000D01*
X123519518Y-167659802D01*
X123518079Y-167669509D01*
X123515694Y-167679028D01*
X123512388Y-167688268D01*
X123508192Y-167697140D01*
X123503147Y-167705557D01*
X123497301Y-167713439D01*
X123490711Y-167720711D01*
X123483439Y-167727301D01*
X123475557Y-167733147D01*
X123467140Y-167738192D01*
X123458268Y-167742388D01*
X123449028Y-167745694D01*
X123439509Y-167748079D01*
X123429802Y-167749518D01*
X123420000Y-167750000D01*
X122420000Y-167750000D01*
X122410198Y-167749518D01*
X122400491Y-167748079D01*
X122390972Y-167745694D01*
X122381732Y-167742388D01*
X122372860Y-167738192D01*
X122364443Y-167733147D01*
X122356561Y-167727301D01*
X122349289Y-167720711D01*
X122342699Y-167713439D01*
X122336853Y-167705557D01*
X122331808Y-167697140D01*
X122327612Y-167688268D01*
X122324306Y-167679028D01*
X122321921Y-167669509D01*
X122320482Y-167659802D01*
X122320000Y-167650000D01*
X122320000Y-166850000D01*
X122320482Y-166840198D01*
X122321921Y-166830491D01*
X122324306Y-166820972D01*
X122327612Y-166811732D01*
X122331808Y-166802860D01*
X122336853Y-166794443D01*
X122342699Y-166786561D01*
X122349289Y-166779289D01*
X122356561Y-166772699D01*
X122364443Y-166766853D01*
X122372860Y-166761808D01*
X122381732Y-166757612D01*
X122390972Y-166754306D01*
X122400491Y-166751921D01*
X122410198Y-166750482D01*
X122420000Y-166750000D01*
X123420000Y-166750000D01*
X123429802Y-166750482D01*
X123429802Y-166750482D01*
G37*
D15*
G04 #@! TD*
G04 #@! TO.P,C1,2*
G04 #@! TO.N,GND*
X122920000Y-167250000D03*
D16*
G04 #@! TO.P,SW1,1*
G04 #@! TO.N,Net-(SW1-Pad1)*
X160700000Y-149300000D03*
G04 #@! TO.P,SW1,2*
G04 #@! TO.N,Net-(SW1-Pad2)*
X160700000Y-151800000D03*
G04 #@! TO.P,SW1,3*
G04 #@! TO.N,Net-(SW1-Pad3)*
X160700000Y-154300000D03*
G04 #@! TO.P,SW1,4*
G04 #@! TO.N,Net-(B1-Pad2)*
X157400000Y-149300000D03*
G04 #@! TO.P,SW1,5*
G04 #@! TO.N,Net-(SW1-Pad5)*
X157400000Y-151800000D03*
G04 #@! TO.P,SW1,6*
G04 #@! TO.N,Net-(C3-Pad1)*
X157400000Y-154300000D03*
G04 #@! TD*
D17*
G04 #@! TO.P,B1,1*
G04 #@! TO.N,GND*
X143360000Y-72510000D03*
G04 #@! TO.P,B1,2*
G04 #@! TO.N,Net-(B1-Pad2)*
X128370000Y-72510000D03*
G04 #@! TD*
D18*
G04 #@! TO.P,U1,1*
G04 #@! TO.N,Net-(C1-Pad1)*
X129450000Y-163125000D03*
G04 #@! TO.P,U1,2*
G04 #@! TO.N,GND*
X131750000Y-163125000D03*
G04 #@! TO.P,U1,3*
G04 #@! TO.N,Net-(C3-Pad1)*
X134050000Y-163125000D03*
D19*
G04 #@! TO.P,U1,4*
G04 #@! TO.N,GND*
X131750000Y-169375000D03*
G04 #@! TD*
D20*
G04 #@! TO.P,J1,3*
G04 #@! TO.N,Net-(J1-Pad3)*
X116910000Y-174720000D03*
D13*
G04 #@! TD*
G04 #@! TO.N,Net-(J1-Pad3)*
G04 #@! TO.C,J1*
G36*
X117399082Y-174213617D02*
X116775722Y-175411082D01*
X116420918Y-175226383D01*
X117044278Y-174028918D01*
X117399082Y-174213617D01*
X117399082Y-174213617D01*
G37*
D20*
G04 #@! TO.P,J1,4*
G04 #@! TO.N,Net-(J1-Pad4)*
X116333443Y-174419863D03*
D13*
G04 #@! TD*
G04 #@! TO.N,Net-(J1-Pad4)*
G04 #@! TO.C,J1*
G36*
X116822525Y-173913480D02*
X116199165Y-175110945D01*
X115844361Y-174926246D01*
X116467721Y-173728781D01*
X116822525Y-173913480D01*
X116822525Y-173913480D01*
G37*
D20*
G04 #@! TO.P,J1,5*
G04 #@! TO.N,GND*
X115756886Y-174119727D03*
D13*
G04 #@! TD*
G04 #@! TO.N,GND*
G04 #@! TO.C,J1*
G36*
X116245968Y-173613344D02*
X115622608Y-174810809D01*
X115267804Y-174626110D01*
X115891164Y-173428645D01*
X116245968Y-173613344D01*
X116245968Y-173613344D01*
G37*
D20*
G04 #@! TO.P,J1,2*
G04 #@! TO.N,Net-(J1-Pad2)*
X117486557Y-175020137D03*
D13*
G04 #@! TD*
G04 #@! TO.N,Net-(J1-Pad2)*
G04 #@! TO.C,J1*
G36*
X117975639Y-174513754D02*
X117352279Y-175711219D01*
X116997475Y-175526520D01*
X117620835Y-174329055D01*
X117975639Y-174513754D01*
X117975639Y-174513754D01*
G37*
D20*
G04 #@! TO.P,J1,1*
G04 #@! TO.N,Net-(D1-Pad2)*
X118063114Y-175320273D03*
D13*
G04 #@! TD*
G04 #@! TO.N,Net-(D1-Pad2)*
G04 #@! TO.C,J1*
G36*
X118552196Y-174813890D02*
X117928836Y-176011355D01*
X117574032Y-175826656D01*
X118197392Y-174629191D01*
X118552196Y-174813890D01*
X118552196Y-174813890D01*
G37*
D21*
G04 #@! TO.P,J1,SH*
G04 #@! TO.N,Net-(J1-PadSH)*
X114692473Y-173565628D03*
D22*
G04 #@! TD*
G04 #@! TO.N,Net-(J1-PadSH)*
G04 #@! TO.C,J1*
X114825525Y-173634890D02*
X114559421Y-173496366D01*
D21*
G04 #@! TO.P,J1,SH*
G04 #@! TO.N,Net-(J1-PadSH)*
X119127527Y-175874372D03*
D22*
G04 #@! TD*
G04 #@! TO.N,Net-(J1-PadSH)*
G04 #@! TO.C,J1*
X119260579Y-175943634D02*
X118994475Y-175805110D01*
D23*
G04 #@! TO.P,J1,SH*
G04 #@! TO.N,Net-(J1-PadSH)*
X118767817Y-178731049D03*
D24*
G04 #@! TD*
G04 #@! TO.N,Net-(J1-PadSH)*
G04 #@! TO.C,J1*
X118640836Y-178974977D02*
X118894798Y-178487121D01*
D23*
G04 #@! TO.P,J1,SH*
G04 #@! TO.N,Net-(J1-PadSH)*
X112558741Y-175498809D03*
D24*
G04 #@! TD*
G04 #@! TO.N,Net-(J1-PadSH)*
G04 #@! TO.C,J1*
X112431760Y-175742737D02*
X112685722Y-175254881D01*
D25*
G04 #@! TO.P,REF\002A\002A,1*
G04 #@! TO.N,N/C*
X110380000Y-38120000D03*
G04 #@! TD*
G04 #@! TO.P,REF\002A\002A,1*
G04 #@! TO.N,N/C*
X161320000Y-32470000D03*
G04 #@! TD*
D26*
G04 #@! TO.N,GND*
X115700000Y-174200000D02*
X116574551Y-172555209D01*
G04 #@! TO.N,Net-(D1-Pad2)*
X120500000Y-172883387D02*
X118063114Y-175320273D01*
X120500000Y-167750000D02*
X120500000Y-172883387D01*
G04 #@! TO.N,Net-(J1-PadSH)*
X114491922Y-173565628D02*
X114692473Y-173565628D01*
X115790981Y-178731049D02*
X118767817Y-178731049D01*
X112558741Y-175498809D02*
X115790981Y-178731049D01*
X119127527Y-178371339D02*
X118767817Y-178731049D01*
X119127527Y-175874372D02*
X119127527Y-178371339D01*
X112759292Y-175498809D02*
X112558741Y-175498809D01*
X114692473Y-173565628D02*
X112759292Y-175498809D01*
G04 #@! TO.N,Net-(SW1-Pad2)*
X162500000Y-147300000D02*
X159100000Y-143900000D01*
X159100000Y-55470000D02*
X161020000Y-53550000D01*
X159100000Y-135500000D02*
X161020000Y-135500000D01*
X159100000Y-143900000D02*
X159100000Y-135500000D01*
X159100000Y-135500000D02*
X159100000Y-55470000D01*
X123570000Y-55500000D02*
X159070000Y-55500000D01*
X159070000Y-55500000D02*
X159100000Y-55470000D01*
X106420000Y-154000000D02*
X113900000Y-146520000D01*
X113900000Y-65430000D02*
X113770000Y-65300000D01*
X113900000Y-146520000D02*
X113900000Y-65430000D01*
X113770000Y-65300000D02*
X123570000Y-55500000D01*
X106420000Y-72650000D02*
X113770000Y-65300000D01*
X162500000Y-150000000D02*
X160700000Y-151800000D01*
X162500000Y-147300000D02*
X162500000Y-150000000D01*
G04 #@! TO.N,Net-(C1-Pad1)*
X121150000Y-165250000D02*
X122920000Y-165250000D01*
X120500000Y-164600000D02*
X121150000Y-165250000D01*
X125090000Y-165250000D02*
X125100000Y-165240000D01*
X122920000Y-165250000D02*
X125090000Y-165250000D01*
X127215000Y-163125000D02*
X129450000Y-163125000D01*
X125100000Y-165240000D02*
X127215000Y-163125000D01*
G04 #@! TO.N,Net-(C3-Pad1)*
X136375000Y-163125000D02*
X138500000Y-165250000D01*
X134050000Y-163125000D02*
X136375000Y-163125000D01*
X138500000Y-165250000D02*
X140750000Y-165250000D01*
X146450000Y-165250000D02*
X157400000Y-154300000D01*
X140750000Y-165250000D02*
X146450000Y-165250000D01*
G04 #@! TO.N,Net-(B1-Pad2)*
X128370000Y-120270000D02*
X157400000Y-149300000D01*
X128370000Y-72510000D02*
X128370000Y-120270000D01*
G04 #@! TD*
D27*
G04 #@! TO.N,GND*
G36*
X161759559Y-29335000D02*
X160696410Y-29335000D01*
X159544165Y-29812276D01*
X158662276Y-30694165D01*
X158185000Y-31846410D01*
X158185000Y-33093590D01*
X158662276Y-34245835D01*
X159544165Y-35127724D01*
X160696410Y-35605000D01*
X161943590Y-35605000D01*
X163095835Y-35127724D01*
X163977724Y-34245835D01*
X164244866Y-33600897D01*
X164263801Y-43380654D01*
X164255122Y-43407716D01*
X164264063Y-43516024D01*
X164264140Y-43555942D01*
X164269602Y-43583125D01*
X164277541Y-43679301D01*
X164296225Y-43715627D01*
X164304272Y-43755675D01*
X164358043Y-43835812D01*
X164402185Y-43921634D01*
X164433348Y-43948045D01*
X164456109Y-43981966D01*
X164536456Y-44035428D01*
X164557604Y-44053350D01*
X164592499Y-44072717D01*
X164682985Y-44132925D01*
X164710871Y-44138416D01*
X170080684Y-47118749D01*
X170182677Y-99796092D01*
X164881793Y-101645620D01*
X164794431Y-101663174D01*
X164698054Y-101727842D01*
X164598035Y-101786721D01*
X164585472Y-101803383D01*
X164568141Y-101815012D01*
X164503849Y-101911639D01*
X164433974Y-102004312D01*
X164428743Y-102024517D01*
X164417184Y-102041889D01*
X164394763Y-102155760D01*
X164365672Y-102268123D01*
X164378050Y-102356369D01*
X164422199Y-125088572D01*
X164413520Y-125115633D01*
X164422461Y-125223951D01*
X164422539Y-125263863D01*
X164428000Y-125291039D01*
X164435939Y-125387218D01*
X164454625Y-125423547D01*
X164462672Y-125463596D01*
X164516441Y-125543730D01*
X164560583Y-125629551D01*
X164591748Y-125655963D01*
X164614510Y-125689886D01*
X164694855Y-125743345D01*
X164716002Y-125761267D01*
X164750902Y-125780637D01*
X164841387Y-125840843D01*
X164869269Y-125846333D01*
X170239070Y-128826662D01*
X170259593Y-139525065D01*
X164958371Y-141374276D01*
X164870982Y-141391836D01*
X164774628Y-141456489D01*
X164674627Y-141515348D01*
X164662046Y-141532031D01*
X164644693Y-141543675D01*
X164580410Y-141640288D01*
X164510551Y-141732927D01*
X164505312Y-141753155D01*
X164493736Y-141770553D01*
X164471317Y-141884416D01*
X164442229Y-141996733D01*
X164454603Y-142085001D01*
X164504363Y-167641812D01*
X121763379Y-182583853D01*
X115855509Y-179493102D01*
X115865829Y-179491049D01*
X117629376Y-179491049D01*
X117754342Y-179718833D01*
X118106484Y-180001456D01*
X118539977Y-180127808D01*
X118988822Y-180078652D01*
X119384692Y-179861471D01*
X119595977Y-179598214D01*
X119953170Y-178912054D01*
X120047629Y-178587982D01*
X119998473Y-178139135D01*
X119887527Y-177936907D01*
X119887527Y-176865750D01*
X119988053Y-176810599D01*
X120264451Y-176466213D01*
X120388018Y-176042269D01*
X120339942Y-175603309D01*
X120127543Y-175216159D01*
X119870088Y-175009531D01*
X119592934Y-174865255D01*
X120984473Y-173473716D01*
X121047929Y-173431316D01*
X121215904Y-173179924D01*
X121260000Y-172958239D01*
X121260000Y-172958235D01*
X121274888Y-172883388D01*
X121260000Y-172808541D01*
X121260000Y-169660750D01*
X129485000Y-169660750D01*
X129485000Y-170381310D01*
X129581673Y-170614699D01*
X129760302Y-170793327D01*
X129993691Y-170890000D01*
X131464250Y-170890000D01*
X131623000Y-170731250D01*
X131623000Y-169502000D01*
X131877000Y-169502000D01*
X131877000Y-170731250D01*
X132035750Y-170890000D01*
X133506309Y-170890000D01*
X133739698Y-170793327D01*
X133918327Y-170614699D01*
X134015000Y-170381310D01*
X134015000Y-169660750D01*
X133856250Y-169502000D01*
X131877000Y-169502000D01*
X131623000Y-169502000D01*
X129643750Y-169502000D01*
X129485000Y-169660750D01*
X121260000Y-169660750D01*
X121260000Y-168729303D01*
X121406449Y-168631449D01*
X121566306Y-168392206D01*
X121622440Y-168110000D01*
X121622440Y-167535750D01*
X121685000Y-167535750D01*
X121685000Y-167876310D01*
X121781673Y-168109699D01*
X121960302Y-168288327D01*
X122193691Y-168385000D01*
X122634250Y-168385000D01*
X122793000Y-168226250D01*
X122793000Y-167377000D01*
X123047000Y-167377000D01*
X123047000Y-168226250D01*
X123205750Y-168385000D01*
X123646309Y-168385000D01*
X123879698Y-168288327D01*
X124015000Y-168153026D01*
X124140302Y-168278327D01*
X124373691Y-168375000D01*
X124814250Y-168375000D01*
X124973000Y-168216250D01*
X124973000Y-167367000D01*
X125227000Y-167367000D01*
X125227000Y-168216250D01*
X125385750Y-168375000D01*
X125826309Y-168375000D01*
X125841542Y-168368690D01*
X129485000Y-168368690D01*
X129485000Y-169089250D01*
X129643750Y-169248000D01*
X131623000Y-169248000D01*
X131623000Y-168018750D01*
X131877000Y-168018750D01*
X131877000Y-169248000D01*
X133856250Y-169248000D01*
X134015000Y-169089250D01*
X134015000Y-168368690D01*
X133918327Y-168135301D01*
X133739698Y-167956673D01*
X133506309Y-167860000D01*
X132035750Y-167860000D01*
X131877000Y-168018750D01*
X131623000Y-168018750D01*
X131464250Y-167860000D01*
X129993691Y-167860000D01*
X129760302Y-167956673D01*
X129581673Y-168135301D01*
X129485000Y-168368690D01*
X125841542Y-168368690D01*
X126059698Y-168278327D01*
X126238327Y-168099699D01*
X126335000Y-167866310D01*
X126335000Y-167535750D01*
X137265000Y-167535750D01*
X137265000Y-167876310D01*
X137361673Y-168109699D01*
X137540302Y-168288327D01*
X137773691Y-168385000D01*
X138214250Y-168385000D01*
X138373000Y-168226250D01*
X138373000Y-167377000D01*
X138627000Y-167377000D01*
X138627000Y-168226250D01*
X138785750Y-168385000D01*
X139226309Y-168385000D01*
X139459698Y-168288327D01*
X139625000Y-168123026D01*
X139790302Y-168288327D01*
X140023691Y-168385000D01*
X140464250Y-168385000D01*
X140623000Y-168226250D01*
X140623000Y-167377000D01*
X140877000Y-167377000D01*
X140877000Y-168226250D01*
X141035750Y-168385000D01*
X141476309Y-168385000D01*
X141709698Y-168288327D01*
X141888327Y-168109699D01*
X141985000Y-167876310D01*
X141985000Y-167535750D01*
X141826250Y-167377000D01*
X140877000Y-167377000D01*
X140623000Y-167377000D01*
X139673750Y-167377000D01*
X139625000Y-167425750D01*
X139576250Y-167377000D01*
X138627000Y-167377000D01*
X138373000Y-167377000D01*
X137423750Y-167377000D01*
X137265000Y-167535750D01*
X126335000Y-167535750D01*
X126335000Y-167525750D01*
X126176250Y-167367000D01*
X125227000Y-167367000D01*
X124973000Y-167367000D01*
X124023750Y-167367000D01*
X124005000Y-167385750D01*
X123996250Y-167377000D01*
X123047000Y-167377000D01*
X122793000Y-167377000D01*
X121843750Y-167377000D01*
X121685000Y-167535750D01*
X121622440Y-167535750D01*
X121622440Y-167390000D01*
X121566306Y-167107794D01*
X121406449Y-166868551D01*
X121167206Y-166708694D01*
X120885000Y-166652560D01*
X120115000Y-166652560D01*
X119832794Y-166708694D01*
X119593551Y-166868551D01*
X119433694Y-167107794D01*
X119377560Y-167390000D01*
X119377560Y-168110000D01*
X119433694Y-168392206D01*
X119593551Y-168631449D01*
X119740000Y-168729303D01*
X119740001Y-172568584D01*
X118327032Y-173981554D01*
X118274593Y-173939468D01*
X117919789Y-173754769D01*
X117797434Y-173719106D01*
X117698036Y-173639331D01*
X117343232Y-173454632D01*
X117220877Y-173418969D01*
X117121479Y-173339194D01*
X116766675Y-173154495D01*
X116665018Y-173124865D01*
X116651216Y-173108416D01*
X116591291Y-173077220D01*
X116548186Y-173090811D01*
X116524149Y-173083805D01*
X116273032Y-173111307D01*
X116127550Y-173191121D01*
X116199773Y-173052381D01*
X116132263Y-172838265D01*
X116072337Y-172807070D01*
X115820680Y-172785053D01*
X115619185Y-172848583D01*
X115435034Y-172700787D01*
X114974987Y-172461303D01*
X114658056Y-172368927D01*
X114219096Y-172417003D01*
X113831946Y-172629401D01*
X113555549Y-172973787D01*
X113431982Y-173397731D01*
X113466885Y-173716414D01*
X113014745Y-174168554D01*
X112786581Y-174102050D01*
X112337735Y-174151206D01*
X111941866Y-174368387D01*
X111730581Y-174631644D01*
X111373388Y-175317805D01*
X111278929Y-175641878D01*
X111328085Y-176090723D01*
X111545266Y-176486593D01*
X111897408Y-176769216D01*
X112330901Y-176895568D01*
X112779746Y-176846412D01*
X112813193Y-176828062D01*
X115064309Y-179079179D01*
X107792119Y-175274673D01*
X107776179Y-167006173D01*
X107786259Y-166972553D01*
X107775918Y-166870931D01*
X107775854Y-166837562D01*
X107769105Y-166803969D01*
X107758672Y-166701443D01*
X107742458Y-166671343D01*
X107735724Y-166637828D01*
X107678308Y-166552256D01*
X107629435Y-166461528D01*
X107602939Y-166439926D01*
X107583890Y-166411536D01*
X107498099Y-166354452D01*
X107471536Y-166332795D01*
X107442048Y-166317156D01*
X107357014Y-166260575D01*
X107322580Y-166253795D01*
X103525551Y-164240000D01*
X119377560Y-164240000D01*
X119377560Y-164960000D01*
X119433694Y-165242206D01*
X119593551Y-165481449D01*
X119832794Y-165641306D01*
X120115000Y-165697440D01*
X120522638Y-165697440D01*
X120559671Y-165734473D01*
X120602071Y-165797929D01*
X120665527Y-165840329D01*
X120853462Y-165965904D01*
X120901605Y-165975480D01*
X121075148Y-166010000D01*
X121075152Y-166010000D01*
X121150000Y-166024888D01*
X121224848Y-166010000D01*
X121778878Y-166010000D01*
X121891480Y-166178520D01*
X121952609Y-166219365D01*
X121781673Y-166390301D01*
X121685000Y-166623690D01*
X121685000Y-166964250D01*
X121843750Y-167123000D01*
X122793000Y-167123000D01*
X122793000Y-167103000D01*
X123047000Y-167103000D01*
X123047000Y-167123000D01*
X123996250Y-167123000D01*
X124015000Y-167104250D01*
X124023750Y-167113000D01*
X124973000Y-167113000D01*
X124973000Y-167093000D01*
X125227000Y-167093000D01*
X125227000Y-167113000D01*
X126176250Y-167113000D01*
X126335000Y-166954250D01*
X126335000Y-166613690D01*
X126238327Y-166380301D01*
X126067391Y-166209365D01*
X126128520Y-166168520D01*
X126290545Y-165926033D01*
X126347440Y-165640000D01*
X126347440Y-165067361D01*
X127529802Y-163885000D01*
X128322560Y-163885000D01*
X128322560Y-164005000D01*
X128371843Y-164252765D01*
X128512191Y-164462809D01*
X128722235Y-164603157D01*
X128970000Y-164652440D01*
X129930000Y-164652440D01*
X130177765Y-164603157D01*
X130387809Y-164462809D01*
X130528157Y-164252765D01*
X130577440Y-164005000D01*
X130577440Y-163410750D01*
X130635000Y-163410750D01*
X130635000Y-164131309D01*
X130731673Y-164364698D01*
X130910301Y-164543327D01*
X131143690Y-164640000D01*
X131464250Y-164640000D01*
X131623000Y-164481250D01*
X131623000Y-163252000D01*
X131877000Y-163252000D01*
X131877000Y-164481250D01*
X132035750Y-164640000D01*
X132356310Y-164640000D01*
X132589699Y-164543327D01*
X132768327Y-164364698D01*
X132865000Y-164131309D01*
X132865000Y-163410750D01*
X132706250Y-163252000D01*
X131877000Y-163252000D01*
X131623000Y-163252000D01*
X130793750Y-163252000D01*
X130635000Y-163410750D01*
X130577440Y-163410750D01*
X130577440Y-162245000D01*
X130552316Y-162118691D01*
X130635000Y-162118691D01*
X130635000Y-162839250D01*
X130793750Y-162998000D01*
X131623000Y-162998000D01*
X131623000Y-161768750D01*
X131877000Y-161768750D01*
X131877000Y-162998000D01*
X132706250Y-162998000D01*
X132865000Y-162839250D01*
X132865000Y-162118691D01*
X132768327Y-161885302D01*
X132589699Y-161706673D01*
X132356310Y-161610000D01*
X132035750Y-161610000D01*
X131877000Y-161768750D01*
X131623000Y-161768750D01*
X131464250Y-161610000D01*
X131143690Y-161610000D01*
X130910301Y-161706673D01*
X130731673Y-161885302D01*
X130635000Y-162118691D01*
X130552316Y-162118691D01*
X130528157Y-161997235D01*
X130387809Y-161787191D01*
X130177765Y-161646843D01*
X129930000Y-161597560D01*
X128970000Y-161597560D01*
X128722235Y-161646843D01*
X128512191Y-161787191D01*
X128371843Y-161997235D01*
X128322560Y-162245000D01*
X128322560Y-162365000D01*
X127289848Y-162365000D01*
X127215000Y-162350112D01*
X127140152Y-162365000D01*
X127140148Y-162365000D01*
X126966605Y-162399520D01*
X126918462Y-162409096D01*
X126731418Y-162534076D01*
X126667071Y-162577071D01*
X126624671Y-162640527D01*
X125172639Y-164092560D01*
X124600000Y-164092560D01*
X124313967Y-164149455D01*
X124071480Y-164311480D01*
X124006659Y-164408491D01*
X123948520Y-164321480D01*
X123706033Y-164159455D01*
X123420000Y-164102560D01*
X122420000Y-164102560D01*
X122133967Y-164159455D01*
X121891480Y-164321480D01*
X121778878Y-164490000D01*
X121622440Y-164490000D01*
X121622440Y-164240000D01*
X121566306Y-163957794D01*
X121406449Y-163718551D01*
X121167206Y-163558694D01*
X120885000Y-163502560D01*
X120115000Y-163502560D01*
X119832794Y-163558694D01*
X119593551Y-163718551D01*
X119433694Y-163957794D01*
X119377560Y-164240000D01*
X103525551Y-164240000D01*
X101959643Y-163409504D01*
X101946821Y-156825750D01*
X104921400Y-156825750D01*
X104921400Y-157529909D01*
X105018073Y-157763298D01*
X105196701Y-157941927D01*
X105430090Y-158038600D01*
X106134250Y-158038600D01*
X106293000Y-157879850D01*
X106293000Y-156667000D01*
X105080150Y-156667000D01*
X104921400Y-156825750D01*
X101946821Y-156825750D01*
X101938815Y-152715217D01*
X107239679Y-150866020D01*
X107327047Y-150848466D01*
X107423401Y-150783816D01*
X107523424Y-150724942D01*
X107535998Y-150708267D01*
X107553339Y-150696632D01*
X107617621Y-150600023D01*
X107687496Y-150507359D01*
X107692732Y-150487140D01*
X107704299Y-150469756D01*
X107726718Y-150355903D01*
X107755813Y-150243552D01*
X107743438Y-150155291D01*
X107700334Y-127793102D01*
X107710220Y-127760468D01*
X107700073Y-127657839D01*
X107700007Y-127623490D01*
X107693451Y-127590860D01*
X107683408Y-127489280D01*
X107666808Y-127458251D01*
X107659877Y-127423756D01*
X107603008Y-127338998D01*
X107554857Y-127248997D01*
X107527649Y-127226685D01*
X107508043Y-127197464D01*
X107423073Y-127140926D01*
X107397327Y-127119813D01*
X107367011Y-127103624D01*
X107281167Y-127046504D01*
X107247718Y-127039917D01*
X101883449Y-124175245D01*
X101789167Y-75475750D01*
X104921400Y-75475750D01*
X104921400Y-76179909D01*
X105018073Y-76413298D01*
X105196701Y-76591927D01*
X105430090Y-76688600D01*
X106134250Y-76688600D01*
X106293000Y-76529850D01*
X106293000Y-75317000D01*
X105080150Y-75317000D01*
X104921400Y-75475750D01*
X101789167Y-75475750D01*
X101783696Y-72650000D01*
X104892041Y-72650000D01*
X105008350Y-73234725D01*
X105338766Y-73729227D01*
X105196701Y-73788073D01*
X105018073Y-73966702D01*
X104921400Y-74200091D01*
X104921400Y-74904250D01*
X105080150Y-75063000D01*
X106293000Y-75063000D01*
X106293000Y-75043000D01*
X106547000Y-75043000D01*
X106547000Y-75063000D01*
X106567000Y-75063000D01*
X106567000Y-75317000D01*
X106547000Y-75317000D01*
X106547000Y-76529850D01*
X106705750Y-76688600D01*
X107409910Y-76688600D01*
X107643299Y-76591927D01*
X107821927Y-76413298D01*
X107880772Y-76271233D01*
X108375275Y-76601650D01*
X108812402Y-76688600D01*
X109107598Y-76688600D01*
X109544725Y-76601650D01*
X110040430Y-76270430D01*
X110216382Y-76007100D01*
X110229549Y-76038889D01*
X110651111Y-76460451D01*
X111201910Y-76688600D01*
X111798090Y-76688600D01*
X112348889Y-76460451D01*
X112770451Y-76038889D01*
X112998600Y-75488090D01*
X112998600Y-74891910D01*
X112770451Y-74341111D01*
X112349340Y-73920000D01*
X112770451Y-73498889D01*
X112998600Y-72948090D01*
X112998600Y-72351910D01*
X112770451Y-71801111D01*
X112348889Y-71379549D01*
X111798090Y-71151400D01*
X111201910Y-71151400D01*
X110651111Y-71379549D01*
X110229549Y-71801111D01*
X110216382Y-71832900D01*
X110040430Y-71569570D01*
X109544725Y-71238350D01*
X109107598Y-71151400D01*
X108993401Y-71151400D01*
X113140001Y-67004801D01*
X113140000Y-146205197D01*
X106797974Y-152547225D01*
X106567598Y-152501400D01*
X106272402Y-152501400D01*
X105835275Y-152588350D01*
X105339570Y-152919570D01*
X105008350Y-153415275D01*
X104892041Y-154000000D01*
X105008350Y-154584725D01*
X105338766Y-155079227D01*
X105196701Y-155138073D01*
X105018073Y-155316702D01*
X104921400Y-155550091D01*
X104921400Y-156254250D01*
X105080150Y-156413000D01*
X106293000Y-156413000D01*
X106293000Y-156393000D01*
X106547000Y-156393000D01*
X106547000Y-156413000D01*
X106567000Y-156413000D01*
X106567000Y-156667000D01*
X106547000Y-156667000D01*
X106547000Y-157879850D01*
X106705750Y-158038600D01*
X107409910Y-158038600D01*
X107643299Y-157941927D01*
X107821927Y-157763298D01*
X107880772Y-157621233D01*
X108375275Y-157951650D01*
X108812402Y-158038600D01*
X109107598Y-158038600D01*
X109544725Y-157951650D01*
X110040430Y-157620430D01*
X110216382Y-157357100D01*
X110229549Y-157388889D01*
X110651111Y-157810451D01*
X111201910Y-158038600D01*
X111798090Y-158038600D01*
X112348889Y-157810451D01*
X112770451Y-157388889D01*
X112998600Y-156838090D01*
X112998600Y-156241910D01*
X112770451Y-155691111D01*
X112349340Y-155270000D01*
X112770451Y-154848889D01*
X112998600Y-154298090D01*
X112998600Y-153701910D01*
X112770451Y-153151111D01*
X112348889Y-152729549D01*
X111798090Y-152501400D01*
X111201910Y-152501400D01*
X110651111Y-152729549D01*
X110229549Y-153151111D01*
X110216382Y-153182900D01*
X110040430Y-152919570D01*
X109544725Y-152588350D01*
X109107598Y-152501400D01*
X108993402Y-152501400D01*
X114384476Y-147110327D01*
X114447929Y-147067929D01*
X114490327Y-147004476D01*
X114490329Y-147004474D01*
X114615903Y-146816538D01*
X114615904Y-146816537D01*
X114660000Y-146594852D01*
X114660000Y-146594848D01*
X114674888Y-146520001D01*
X114660000Y-146445154D01*
X114660000Y-72204670D01*
X126835000Y-72204670D01*
X126835000Y-72815330D01*
X127068690Y-73379507D01*
X127500493Y-73811310D01*
X127610000Y-73856669D01*
X127610001Y-120195148D01*
X127595112Y-120270000D01*
X127610001Y-120344852D01*
X127654097Y-120566537D01*
X127822072Y-120817929D01*
X127885528Y-120860329D01*
X156015980Y-148990782D01*
X156003000Y-149022119D01*
X156003000Y-149577881D01*
X156215680Y-150091337D01*
X156608663Y-150484320D01*
X156767229Y-150550000D01*
X156608663Y-150615680D01*
X156215680Y-151008663D01*
X156003000Y-151522119D01*
X156003000Y-152077881D01*
X156215680Y-152591337D01*
X156608663Y-152984320D01*
X156767229Y-153050000D01*
X156608663Y-153115680D01*
X156215680Y-153508663D01*
X156003000Y-154022119D01*
X156003000Y-154577881D01*
X156015980Y-154609218D01*
X146135199Y-164490000D01*
X141891122Y-164490000D01*
X141778520Y-164321480D01*
X141536033Y-164159455D01*
X141250000Y-164102560D01*
X140250000Y-164102560D01*
X139963967Y-164159455D01*
X139721480Y-164321480D01*
X139625000Y-164465872D01*
X139528520Y-164321480D01*
X139286033Y-164159455D01*
X139000000Y-164102560D01*
X138427362Y-164102560D01*
X136965331Y-162640530D01*
X136922929Y-162577071D01*
X136671537Y-162409096D01*
X136449852Y-162365000D01*
X136449847Y-162365000D01*
X136375000Y-162350112D01*
X136300153Y-162365000D01*
X135177440Y-162365000D01*
X135177440Y-162245000D01*
X135128157Y-161997235D01*
X134987809Y-161787191D01*
X134777765Y-161646843D01*
X134530000Y-161597560D01*
X133570000Y-161597560D01*
X133322235Y-161646843D01*
X133112191Y-161787191D01*
X132971843Y-161997235D01*
X132922560Y-162245000D01*
X132922560Y-164005000D01*
X132971843Y-164252765D01*
X133112191Y-164462809D01*
X133322235Y-164603157D01*
X133570000Y-164652440D01*
X134530000Y-164652440D01*
X134777765Y-164603157D01*
X134987809Y-164462809D01*
X135128157Y-164252765D01*
X135177440Y-164005000D01*
X135177440Y-163885000D01*
X136060199Y-163885000D01*
X137252560Y-165077362D01*
X137252560Y-165650000D01*
X137309455Y-165936033D01*
X137471480Y-166178520D01*
X137532609Y-166219365D01*
X137361673Y-166390301D01*
X137265000Y-166623690D01*
X137265000Y-166964250D01*
X137423750Y-167123000D01*
X138373000Y-167123000D01*
X138373000Y-167103000D01*
X138627000Y-167103000D01*
X138627000Y-167123000D01*
X139576250Y-167123000D01*
X139625000Y-167074250D01*
X139673750Y-167123000D01*
X140623000Y-167123000D01*
X140623000Y-167103000D01*
X140877000Y-167103000D01*
X140877000Y-167123000D01*
X141826250Y-167123000D01*
X141985000Y-166964250D01*
X141985000Y-166623690D01*
X141888327Y-166390301D01*
X141717391Y-166219365D01*
X141778520Y-166178520D01*
X141891122Y-166010000D01*
X146375153Y-166010000D01*
X146450000Y-166024888D01*
X146524847Y-166010000D01*
X146524852Y-166010000D01*
X146746537Y-165965904D01*
X146997929Y-165797929D01*
X147040331Y-165734470D01*
X157090782Y-155684020D01*
X157122119Y-155697000D01*
X157677881Y-155697000D01*
X158191337Y-155484320D01*
X158584320Y-155091337D01*
X158797000Y-154577881D01*
X158797000Y-154022119D01*
X158584320Y-153508663D01*
X158191337Y-153115680D01*
X158032771Y-153050000D01*
X158191337Y-152984320D01*
X158584320Y-152591337D01*
X158797000Y-152077881D01*
X158797000Y-151522119D01*
X158584320Y-151008663D01*
X158191337Y-150615680D01*
X158032771Y-150550000D01*
X158191337Y-150484320D01*
X158584320Y-150091337D01*
X158797000Y-149577881D01*
X158797000Y-149022119D01*
X158584320Y-148508663D01*
X158191337Y-148115680D01*
X157677881Y-147903000D01*
X157122119Y-147903000D01*
X157090782Y-147915980D01*
X129130000Y-119955199D01*
X129130000Y-73856669D01*
X129239507Y-73811310D01*
X129460658Y-73590159D01*
X142459446Y-73590159D01*
X142545852Y-73846643D01*
X143119336Y-74056458D01*
X143729460Y-74030839D01*
X144174148Y-73846643D01*
X144260554Y-73590159D01*
X143360000Y-72689605D01*
X142459446Y-73590159D01*
X129460658Y-73590159D01*
X129671310Y-73379507D01*
X129905000Y-72815330D01*
X129905000Y-72269336D01*
X141813542Y-72269336D01*
X141839161Y-72879460D01*
X142023357Y-73324148D01*
X142279841Y-73410554D01*
X143180395Y-72510000D01*
X143539605Y-72510000D01*
X144440159Y-73410554D01*
X144696643Y-73324148D01*
X144906458Y-72750664D01*
X144880839Y-72140540D01*
X144696643Y-71695852D01*
X144440159Y-71609446D01*
X143539605Y-72510000D01*
X143180395Y-72510000D01*
X142279841Y-71609446D01*
X142023357Y-71695852D01*
X141813542Y-72269336D01*
X129905000Y-72269336D01*
X129905000Y-72204670D01*
X129671310Y-71640493D01*
X129460658Y-71429841D01*
X142459446Y-71429841D01*
X143360000Y-72330395D01*
X144260554Y-71429841D01*
X144174148Y-71173357D01*
X143600664Y-70963542D01*
X142990540Y-70989161D01*
X142545852Y-71173357D01*
X142459446Y-71429841D01*
X129460658Y-71429841D01*
X129239507Y-71208690D01*
X128675330Y-70975000D01*
X128064670Y-70975000D01*
X127500493Y-71208690D01*
X127068690Y-71640493D01*
X126835000Y-72204670D01*
X114660000Y-72204670D01*
X114660000Y-65504848D01*
X114664978Y-65479823D01*
X123884802Y-56260000D01*
X158340001Y-56260000D01*
X158340000Y-135425148D01*
X158325111Y-135500000D01*
X158340001Y-135574857D01*
X158340000Y-143825153D01*
X158325112Y-143900000D01*
X158340000Y-143974847D01*
X158340000Y-143974851D01*
X158384096Y-144196536D01*
X158552071Y-144447929D01*
X158615530Y-144490331D01*
X161740000Y-147614802D01*
X161740000Y-148364343D01*
X161491337Y-148115680D01*
X160977881Y-147903000D01*
X160422119Y-147903000D01*
X159908663Y-148115680D01*
X159515680Y-148508663D01*
X159303000Y-149022119D01*
X159303000Y-149577881D01*
X159515680Y-150091337D01*
X159908663Y-150484320D01*
X160067229Y-150550000D01*
X159908663Y-150615680D01*
X159515680Y-151008663D01*
X159303000Y-151522119D01*
X159303000Y-152077881D01*
X159515680Y-152591337D01*
X159908663Y-152984320D01*
X160067229Y-153050000D01*
X159908663Y-153115680D01*
X159515680Y-153508663D01*
X159303000Y-154022119D01*
X159303000Y-154577881D01*
X159515680Y-155091337D01*
X159908663Y-155484320D01*
X160422119Y-155697000D01*
X160977881Y-155697000D01*
X161491337Y-155484320D01*
X161884320Y-155091337D01*
X162097000Y-154577881D01*
X162097000Y-154022119D01*
X161884320Y-153508663D01*
X161491337Y-153115680D01*
X161332771Y-153050000D01*
X161491337Y-152984320D01*
X161884320Y-152591337D01*
X162097000Y-152077881D01*
X162097000Y-151522119D01*
X162084020Y-151490782D01*
X162984476Y-150590327D01*
X163047929Y-150547929D01*
X163090327Y-150484476D01*
X163090329Y-150484474D01*
X163215903Y-150296538D01*
X163215904Y-150296537D01*
X163260000Y-150074852D01*
X163260000Y-150074848D01*
X163274888Y-150000001D01*
X163260000Y-149925154D01*
X163260000Y-147374846D01*
X163274888Y-147299999D01*
X163260000Y-147225152D01*
X163260000Y-147225148D01*
X163215904Y-147003463D01*
X163047929Y-146752071D01*
X162984473Y-146709671D01*
X159860000Y-143585199D01*
X159860000Y-139468146D01*
X160030090Y-139538600D01*
X160734250Y-139538600D01*
X160893000Y-139379850D01*
X160893000Y-138167000D01*
X160873000Y-138167000D01*
X160873000Y-137913000D01*
X160893000Y-137913000D01*
X160893000Y-137893000D01*
X161147000Y-137893000D01*
X161147000Y-137913000D01*
X161167000Y-137913000D01*
X161167000Y-138167000D01*
X161147000Y-138167000D01*
X161147000Y-139379850D01*
X161305750Y-139538600D01*
X162009910Y-139538600D01*
X162243299Y-139441927D01*
X162421927Y-139263298D01*
X162480772Y-139121233D01*
X162975275Y-139451650D01*
X163412402Y-139538600D01*
X163707598Y-139538600D01*
X164144725Y-139451650D01*
X164640430Y-139120430D01*
X164816382Y-138857100D01*
X164829549Y-138888889D01*
X165251111Y-139310451D01*
X165801910Y-139538600D01*
X166398090Y-139538600D01*
X166948889Y-139310451D01*
X167370451Y-138888889D01*
X167598600Y-138338090D01*
X167598600Y-137741910D01*
X167370451Y-137191111D01*
X166949340Y-136770000D01*
X167370451Y-136348889D01*
X167598600Y-135798090D01*
X167598600Y-135201910D01*
X167370451Y-134651111D01*
X166948889Y-134229549D01*
X166398090Y-134001400D01*
X165801910Y-134001400D01*
X165251111Y-134229549D01*
X164829549Y-134651111D01*
X164816382Y-134682900D01*
X164640430Y-134419570D01*
X164144725Y-134088350D01*
X163707598Y-134001400D01*
X163412402Y-134001400D01*
X162975275Y-134088350D01*
X162479570Y-134419570D01*
X162290000Y-134703281D01*
X162100430Y-134419570D01*
X161604725Y-134088350D01*
X161167598Y-134001400D01*
X160872402Y-134001400D01*
X160435275Y-134088350D01*
X159939570Y-134419570D01*
X159860000Y-134538655D01*
X159860000Y-57518146D01*
X160030090Y-57588600D01*
X160734250Y-57588600D01*
X160893000Y-57429850D01*
X160893000Y-56217000D01*
X160873000Y-56217000D01*
X160873000Y-55963000D01*
X160893000Y-55963000D01*
X160893000Y-55943000D01*
X161147000Y-55943000D01*
X161147000Y-55963000D01*
X161167000Y-55963000D01*
X161167000Y-56217000D01*
X161147000Y-56217000D01*
X161147000Y-57429850D01*
X161305750Y-57588600D01*
X162009910Y-57588600D01*
X162243299Y-57491927D01*
X162421927Y-57313298D01*
X162480772Y-57171233D01*
X162975275Y-57501650D01*
X163412402Y-57588600D01*
X163707598Y-57588600D01*
X164144725Y-57501650D01*
X164640430Y-57170430D01*
X164816382Y-56907100D01*
X164829549Y-56938889D01*
X165251111Y-57360451D01*
X165801910Y-57588600D01*
X166398090Y-57588600D01*
X166948889Y-57360451D01*
X167370451Y-56938889D01*
X167598600Y-56388090D01*
X167598600Y-55791910D01*
X167370451Y-55241111D01*
X166949340Y-54820000D01*
X167370451Y-54398889D01*
X167598600Y-53848090D01*
X167598600Y-53251910D01*
X167370451Y-52701111D01*
X166948889Y-52279549D01*
X166398090Y-52051400D01*
X165801910Y-52051400D01*
X165251111Y-52279549D01*
X164829549Y-52701111D01*
X164816382Y-52732900D01*
X164640430Y-52469570D01*
X164144725Y-52138350D01*
X163707598Y-52051400D01*
X163412402Y-52051400D01*
X162975275Y-52138350D01*
X162479570Y-52469570D01*
X162290000Y-52753281D01*
X162100430Y-52469570D01*
X161604725Y-52138350D01*
X161167598Y-52051400D01*
X160872402Y-52051400D01*
X160435275Y-52138350D01*
X159939570Y-52469570D01*
X159608350Y-52965275D01*
X159492041Y-53550000D01*
X159567225Y-53927974D01*
X158755199Y-54740000D01*
X123644847Y-54740000D01*
X123570000Y-54725112D01*
X123495153Y-54740000D01*
X123495148Y-54740000D01*
X123273463Y-54784096D01*
X123022071Y-54952071D01*
X122979671Y-55015527D01*
X113285530Y-64709669D01*
X113285527Y-64709671D01*
X113222071Y-64752071D01*
X113179672Y-64815526D01*
X106797974Y-71197225D01*
X106567598Y-71151400D01*
X106272402Y-71151400D01*
X105835275Y-71238350D01*
X105339570Y-71569570D01*
X105008350Y-72065275D01*
X104892041Y-72650000D01*
X101783696Y-72650000D01*
X101781470Y-71500493D01*
X107082685Y-69651286D01*
X107170067Y-69633728D01*
X107266412Y-69569082D01*
X107366427Y-69510215D01*
X107379008Y-69493532D01*
X107396357Y-69481891D01*
X107460632Y-69385292D01*
X107530504Y-69292636D01*
X107535743Y-69272407D01*
X107547316Y-69255014D01*
X107569731Y-69141173D01*
X107598826Y-69028830D01*
X107586451Y-68940555D01*
X107529222Y-39429763D01*
X107722276Y-39895835D01*
X108604165Y-40777724D01*
X109756410Y-41255000D01*
X111003590Y-41255000D01*
X112155835Y-40777724D01*
X113037724Y-39895835D01*
X113515000Y-38743590D01*
X113515000Y-37496410D01*
X113037724Y-36344165D01*
X112155835Y-35462276D01*
X111003590Y-34985000D01*
X110942998Y-34985000D01*
X147321642Y-22233227D01*
X147903639Y-22231879D01*
X161759559Y-29335000D01*
X161759559Y-29335000D01*
G37*
X161759559Y-29335000D02*
X160696410Y-29335000D01*
X159544165Y-29812276D01*
X158662276Y-30694165D01*
X158185000Y-31846410D01*
X158185000Y-33093590D01*
X158662276Y-34245835D01*
X159544165Y-35127724D01*
X160696410Y-35605000D01*
X161943590Y-35605000D01*
X163095835Y-35127724D01*
X163977724Y-34245835D01*
X164244866Y-33600897D01*
X164263801Y-43380654D01*
X164255122Y-43407716D01*
X164264063Y-43516024D01*
X164264140Y-43555942D01*
X164269602Y-43583125D01*
X164277541Y-43679301D01*
X164296225Y-43715627D01*
X164304272Y-43755675D01*
X164358043Y-43835812D01*
X164402185Y-43921634D01*
X164433348Y-43948045D01*
X164456109Y-43981966D01*
X164536456Y-44035428D01*
X164557604Y-44053350D01*
X164592499Y-44072717D01*
X164682985Y-44132925D01*
X164710871Y-44138416D01*
X170080684Y-47118749D01*
X170182677Y-99796092D01*
X164881793Y-101645620D01*
X164794431Y-101663174D01*
X164698054Y-101727842D01*
X164598035Y-101786721D01*
X164585472Y-101803383D01*
X164568141Y-101815012D01*
X164503849Y-101911639D01*
X164433974Y-102004312D01*
X164428743Y-102024517D01*
X164417184Y-102041889D01*
X164394763Y-102155760D01*
X164365672Y-102268123D01*
X164378050Y-102356369D01*
X164422199Y-125088572D01*
X164413520Y-125115633D01*
X164422461Y-125223951D01*
X164422539Y-125263863D01*
X164428000Y-125291039D01*
X164435939Y-125387218D01*
X164454625Y-125423547D01*
X164462672Y-125463596D01*
X164516441Y-125543730D01*
X164560583Y-125629551D01*
X164591748Y-125655963D01*
X164614510Y-125689886D01*
X164694855Y-125743345D01*
X164716002Y-125761267D01*
X164750902Y-125780637D01*
X164841387Y-125840843D01*
X164869269Y-125846333D01*
X170239070Y-128826662D01*
X170259593Y-139525065D01*
X164958371Y-141374276D01*
X164870982Y-141391836D01*
X164774628Y-141456489D01*
X164674627Y-141515348D01*
X164662046Y-141532031D01*
X164644693Y-141543675D01*
X164580410Y-141640288D01*
X164510551Y-141732927D01*
X164505312Y-141753155D01*
X164493736Y-141770553D01*
X164471317Y-141884416D01*
X164442229Y-141996733D01*
X164454603Y-142085001D01*
X164504363Y-167641812D01*
X121763379Y-182583853D01*
X115855509Y-179493102D01*
X115865829Y-179491049D01*
X117629376Y-179491049D01*
X117754342Y-179718833D01*
X118106484Y-180001456D01*
X118539977Y-180127808D01*
X118988822Y-180078652D01*
X119384692Y-179861471D01*
X119595977Y-179598214D01*
X119953170Y-178912054D01*
X120047629Y-178587982D01*
X119998473Y-178139135D01*
X119887527Y-177936907D01*
X119887527Y-176865750D01*
X119988053Y-176810599D01*
X120264451Y-176466213D01*
X120388018Y-176042269D01*
X120339942Y-175603309D01*
X120127543Y-175216159D01*
X119870088Y-175009531D01*
X119592934Y-174865255D01*
X120984473Y-173473716D01*
X121047929Y-173431316D01*
X121215904Y-173179924D01*
X121260000Y-172958239D01*
X121260000Y-172958235D01*
X121274888Y-172883388D01*
X121260000Y-172808541D01*
X121260000Y-169660750D01*
X129485000Y-169660750D01*
X129485000Y-170381310D01*
X129581673Y-170614699D01*
X129760302Y-170793327D01*
X129993691Y-170890000D01*
X131464250Y-170890000D01*
X131623000Y-170731250D01*
X131623000Y-169502000D01*
X131877000Y-169502000D01*
X131877000Y-170731250D01*
X132035750Y-170890000D01*
X133506309Y-170890000D01*
X133739698Y-170793327D01*
X133918327Y-170614699D01*
X134015000Y-170381310D01*
X134015000Y-169660750D01*
X133856250Y-169502000D01*
X131877000Y-169502000D01*
X131623000Y-169502000D01*
X129643750Y-169502000D01*
X129485000Y-169660750D01*
X121260000Y-169660750D01*
X121260000Y-168729303D01*
X121406449Y-168631449D01*
X121566306Y-168392206D01*
X121622440Y-168110000D01*
X121622440Y-167535750D01*
X121685000Y-167535750D01*
X121685000Y-167876310D01*
X121781673Y-168109699D01*
X121960302Y-168288327D01*
X122193691Y-168385000D01*
X122634250Y-168385000D01*
X122793000Y-168226250D01*
X122793000Y-167377000D01*
X123047000Y-167377000D01*
X123047000Y-168226250D01*
X123205750Y-168385000D01*
X123646309Y-168385000D01*
X123879698Y-168288327D01*
X124015000Y-168153026D01*
X124140302Y-168278327D01*
X124373691Y-168375000D01*
X124814250Y-168375000D01*
X124973000Y-168216250D01*
X124973000Y-167367000D01*
X125227000Y-167367000D01*
X125227000Y-168216250D01*
X125385750Y-168375000D01*
X125826309Y-168375000D01*
X125841542Y-168368690D01*
X129485000Y-168368690D01*
X129485000Y-169089250D01*
X129643750Y-169248000D01*
X131623000Y-169248000D01*
X131623000Y-168018750D01*
X131877000Y-168018750D01*
X131877000Y-169248000D01*
X133856250Y-169248000D01*
X134015000Y-169089250D01*
X134015000Y-168368690D01*
X133918327Y-168135301D01*
X133739698Y-167956673D01*
X133506309Y-167860000D01*
X132035750Y-167860000D01*
X131877000Y-168018750D01*
X131623000Y-168018750D01*
X131464250Y-167860000D01*
X129993691Y-167860000D01*
X129760302Y-167956673D01*
X129581673Y-168135301D01*
X129485000Y-168368690D01*
X125841542Y-168368690D01*
X126059698Y-168278327D01*
X126238327Y-168099699D01*
X126335000Y-167866310D01*
X126335000Y-167535750D01*
X137265000Y-167535750D01*
X137265000Y-167876310D01*
X137361673Y-168109699D01*
X137540302Y-168288327D01*
X137773691Y-168385000D01*
X138214250Y-168385000D01*
X138373000Y-168226250D01*
X138373000Y-167377000D01*
X138627000Y-167377000D01*
X138627000Y-168226250D01*
X138785750Y-168385000D01*
X139226309Y-168385000D01*
X139459698Y-168288327D01*
X139625000Y-168123026D01*
X139790302Y-168288327D01*
X140023691Y-168385000D01*
X140464250Y-168385000D01*
X140623000Y-168226250D01*
X140623000Y-167377000D01*
X140877000Y-167377000D01*
X140877000Y-168226250D01*
X141035750Y-168385000D01*
X141476309Y-168385000D01*
X141709698Y-168288327D01*
X141888327Y-168109699D01*
X141985000Y-167876310D01*
X141985000Y-167535750D01*
X141826250Y-167377000D01*
X140877000Y-167377000D01*
X140623000Y-167377000D01*
X139673750Y-167377000D01*
X139625000Y-167425750D01*
X139576250Y-167377000D01*
X138627000Y-167377000D01*
X138373000Y-167377000D01*
X137423750Y-167377000D01*
X137265000Y-167535750D01*
X126335000Y-167535750D01*
X126335000Y-167525750D01*
X126176250Y-167367000D01*
X125227000Y-167367000D01*
X124973000Y-167367000D01*
X124023750Y-167367000D01*
X124005000Y-167385750D01*
X123996250Y-167377000D01*
X123047000Y-167377000D01*
X122793000Y-167377000D01*
X121843750Y-167377000D01*
X121685000Y-167535750D01*
X121622440Y-167535750D01*
X121622440Y-167390000D01*
X121566306Y-167107794D01*
X121406449Y-166868551D01*
X121167206Y-166708694D01*
X120885000Y-166652560D01*
X120115000Y-166652560D01*
X119832794Y-166708694D01*
X119593551Y-166868551D01*
X119433694Y-167107794D01*
X119377560Y-167390000D01*
X119377560Y-168110000D01*
X119433694Y-168392206D01*
X119593551Y-168631449D01*
X119740000Y-168729303D01*
X119740001Y-172568584D01*
X118327032Y-173981554D01*
X118274593Y-173939468D01*
X117919789Y-173754769D01*
X117797434Y-173719106D01*
X117698036Y-173639331D01*
X117343232Y-173454632D01*
X117220877Y-173418969D01*
X117121479Y-173339194D01*
X116766675Y-173154495D01*
X116665018Y-173124865D01*
X116651216Y-173108416D01*
X116591291Y-173077220D01*
X116548186Y-173090811D01*
X116524149Y-173083805D01*
X116273032Y-173111307D01*
X116127550Y-173191121D01*
X116199773Y-173052381D01*
X116132263Y-172838265D01*
X116072337Y-172807070D01*
X115820680Y-172785053D01*
X115619185Y-172848583D01*
X115435034Y-172700787D01*
X114974987Y-172461303D01*
X114658056Y-172368927D01*
X114219096Y-172417003D01*
X113831946Y-172629401D01*
X113555549Y-172973787D01*
X113431982Y-173397731D01*
X113466885Y-173716414D01*
X113014745Y-174168554D01*
X112786581Y-174102050D01*
X112337735Y-174151206D01*
X111941866Y-174368387D01*
X111730581Y-174631644D01*
X111373388Y-175317805D01*
X111278929Y-175641878D01*
X111328085Y-176090723D01*
X111545266Y-176486593D01*
X111897408Y-176769216D01*
X112330901Y-176895568D01*
X112779746Y-176846412D01*
X112813193Y-176828062D01*
X115064309Y-179079179D01*
X107792119Y-175274673D01*
X107776179Y-167006173D01*
X107786259Y-166972553D01*
X107775918Y-166870931D01*
X107775854Y-166837562D01*
X107769105Y-166803969D01*
X107758672Y-166701443D01*
X107742458Y-166671343D01*
X107735724Y-166637828D01*
X107678308Y-166552256D01*
X107629435Y-166461528D01*
X107602939Y-166439926D01*
X107583890Y-166411536D01*
X107498099Y-166354452D01*
X107471536Y-166332795D01*
X107442048Y-166317156D01*
X107357014Y-166260575D01*
X107322580Y-166253795D01*
X103525551Y-164240000D01*
X119377560Y-164240000D01*
X119377560Y-164960000D01*
X119433694Y-165242206D01*
X119593551Y-165481449D01*
X119832794Y-165641306D01*
X120115000Y-165697440D01*
X120522638Y-165697440D01*
X120559671Y-165734473D01*
X120602071Y-165797929D01*
X120665527Y-165840329D01*
X120853462Y-165965904D01*
X120901605Y-165975480D01*
X121075148Y-166010000D01*
X121075152Y-166010000D01*
X121150000Y-166024888D01*
X121224848Y-166010000D01*
X121778878Y-166010000D01*
X121891480Y-166178520D01*
X121952609Y-166219365D01*
X121781673Y-166390301D01*
X121685000Y-166623690D01*
X121685000Y-166964250D01*
X121843750Y-167123000D01*
X122793000Y-167123000D01*
X122793000Y-167103000D01*
X123047000Y-167103000D01*
X123047000Y-167123000D01*
X123996250Y-167123000D01*
X124015000Y-167104250D01*
X124023750Y-167113000D01*
X124973000Y-167113000D01*
X124973000Y-167093000D01*
X125227000Y-167093000D01*
X125227000Y-167113000D01*
X126176250Y-167113000D01*
X126335000Y-166954250D01*
X126335000Y-166613690D01*
X126238327Y-166380301D01*
X126067391Y-166209365D01*
X126128520Y-166168520D01*
X126290545Y-165926033D01*
X126347440Y-165640000D01*
X126347440Y-165067361D01*
X127529802Y-163885000D01*
X128322560Y-163885000D01*
X128322560Y-164005000D01*
X128371843Y-164252765D01*
X128512191Y-164462809D01*
X128722235Y-164603157D01*
X128970000Y-164652440D01*
X129930000Y-164652440D01*
X130177765Y-164603157D01*
X130387809Y-164462809D01*
X130528157Y-164252765D01*
X130577440Y-164005000D01*
X130577440Y-163410750D01*
X130635000Y-163410750D01*
X130635000Y-164131309D01*
X130731673Y-164364698D01*
X130910301Y-164543327D01*
X131143690Y-164640000D01*
X131464250Y-164640000D01*
X131623000Y-164481250D01*
X131623000Y-163252000D01*
X131877000Y-163252000D01*
X131877000Y-164481250D01*
X132035750Y-164640000D01*
X132356310Y-164640000D01*
X132589699Y-164543327D01*
X132768327Y-164364698D01*
X132865000Y-164131309D01*
X132865000Y-163410750D01*
X132706250Y-163252000D01*
X131877000Y-163252000D01*
X131623000Y-163252000D01*
X130793750Y-163252000D01*
X130635000Y-163410750D01*
X130577440Y-163410750D01*
X130577440Y-162245000D01*
X130552316Y-162118691D01*
X130635000Y-162118691D01*
X130635000Y-162839250D01*
X130793750Y-162998000D01*
X131623000Y-162998000D01*
X131623000Y-161768750D01*
X131877000Y-161768750D01*
X131877000Y-162998000D01*
X132706250Y-162998000D01*
X132865000Y-162839250D01*
X132865000Y-162118691D01*
X132768327Y-161885302D01*
X132589699Y-161706673D01*
X132356310Y-161610000D01*
X132035750Y-161610000D01*
X131877000Y-161768750D01*
X131623000Y-161768750D01*
X131464250Y-161610000D01*
X131143690Y-161610000D01*
X130910301Y-161706673D01*
X130731673Y-161885302D01*
X130635000Y-162118691D01*
X130552316Y-162118691D01*
X130528157Y-161997235D01*
X130387809Y-161787191D01*
X130177765Y-161646843D01*
X129930000Y-161597560D01*
X128970000Y-161597560D01*
X128722235Y-161646843D01*
X128512191Y-161787191D01*
X128371843Y-161997235D01*
X128322560Y-162245000D01*
X128322560Y-162365000D01*
X127289848Y-162365000D01*
X127215000Y-162350112D01*
X127140152Y-162365000D01*
X127140148Y-162365000D01*
X126966605Y-162399520D01*
X126918462Y-162409096D01*
X126731418Y-162534076D01*
X126667071Y-162577071D01*
X126624671Y-162640527D01*
X125172639Y-164092560D01*
X124600000Y-164092560D01*
X124313967Y-164149455D01*
X124071480Y-164311480D01*
X124006659Y-164408491D01*
X123948520Y-164321480D01*
X123706033Y-164159455D01*
X123420000Y-164102560D01*
X122420000Y-164102560D01*
X122133967Y-164159455D01*
X121891480Y-164321480D01*
X121778878Y-164490000D01*
X121622440Y-164490000D01*
X121622440Y-164240000D01*
X121566306Y-163957794D01*
X121406449Y-163718551D01*
X121167206Y-163558694D01*
X120885000Y-163502560D01*
X120115000Y-163502560D01*
X119832794Y-163558694D01*
X119593551Y-163718551D01*
X119433694Y-163957794D01*
X119377560Y-164240000D01*
X103525551Y-164240000D01*
X101959643Y-163409504D01*
X101946821Y-156825750D01*
X104921400Y-156825750D01*
X104921400Y-157529909D01*
X105018073Y-157763298D01*
X105196701Y-157941927D01*
X105430090Y-158038600D01*
X106134250Y-158038600D01*
X106293000Y-157879850D01*
X106293000Y-156667000D01*
X105080150Y-156667000D01*
X104921400Y-156825750D01*
X101946821Y-156825750D01*
X101938815Y-152715217D01*
X107239679Y-150866020D01*
X107327047Y-150848466D01*
X107423401Y-150783816D01*
X107523424Y-150724942D01*
X107535998Y-150708267D01*
X107553339Y-150696632D01*
X107617621Y-150600023D01*
X107687496Y-150507359D01*
X107692732Y-150487140D01*
X107704299Y-150469756D01*
X107726718Y-150355903D01*
X107755813Y-150243552D01*
X107743438Y-150155291D01*
X107700334Y-127793102D01*
X107710220Y-127760468D01*
X107700073Y-127657839D01*
X107700007Y-127623490D01*
X107693451Y-127590860D01*
X107683408Y-127489280D01*
X107666808Y-127458251D01*
X107659877Y-127423756D01*
X107603008Y-127338998D01*
X107554857Y-127248997D01*
X107527649Y-127226685D01*
X107508043Y-127197464D01*
X107423073Y-127140926D01*
X107397327Y-127119813D01*
X107367011Y-127103624D01*
X107281167Y-127046504D01*
X107247718Y-127039917D01*
X101883449Y-124175245D01*
X101789167Y-75475750D01*
X104921400Y-75475750D01*
X104921400Y-76179909D01*
X105018073Y-76413298D01*
X105196701Y-76591927D01*
X105430090Y-76688600D01*
X106134250Y-76688600D01*
X106293000Y-76529850D01*
X106293000Y-75317000D01*
X105080150Y-75317000D01*
X104921400Y-75475750D01*
X101789167Y-75475750D01*
X101783696Y-72650000D01*
X104892041Y-72650000D01*
X105008350Y-73234725D01*
X105338766Y-73729227D01*
X105196701Y-73788073D01*
X105018073Y-73966702D01*
X104921400Y-74200091D01*
X104921400Y-74904250D01*
X105080150Y-75063000D01*
X106293000Y-75063000D01*
X106293000Y-75043000D01*
X106547000Y-75043000D01*
X106547000Y-75063000D01*
X106567000Y-75063000D01*
X106567000Y-75317000D01*
X106547000Y-75317000D01*
X106547000Y-76529850D01*
X106705750Y-76688600D01*
X107409910Y-76688600D01*
X107643299Y-76591927D01*
X107821927Y-76413298D01*
X107880772Y-76271233D01*
X108375275Y-76601650D01*
X108812402Y-76688600D01*
X109107598Y-76688600D01*
X109544725Y-76601650D01*
X110040430Y-76270430D01*
X110216382Y-76007100D01*
X110229549Y-76038889D01*
X110651111Y-76460451D01*
X111201910Y-76688600D01*
X111798090Y-76688600D01*
X112348889Y-76460451D01*
X112770451Y-76038889D01*
X112998600Y-75488090D01*
X112998600Y-74891910D01*
X112770451Y-74341111D01*
X112349340Y-73920000D01*
X112770451Y-73498889D01*
X112998600Y-72948090D01*
X112998600Y-72351910D01*
X112770451Y-71801111D01*
X112348889Y-71379549D01*
X111798090Y-71151400D01*
X111201910Y-71151400D01*
X110651111Y-71379549D01*
X110229549Y-71801111D01*
X110216382Y-71832900D01*
X110040430Y-71569570D01*
X109544725Y-71238350D01*
X109107598Y-71151400D01*
X108993401Y-71151400D01*
X113140001Y-67004801D01*
X113140000Y-146205197D01*
X106797974Y-152547225D01*
X106567598Y-152501400D01*
X106272402Y-152501400D01*
X105835275Y-152588350D01*
X105339570Y-152919570D01*
X105008350Y-153415275D01*
X104892041Y-154000000D01*
X105008350Y-154584725D01*
X105338766Y-155079227D01*
X105196701Y-155138073D01*
X105018073Y-155316702D01*
X104921400Y-155550091D01*
X104921400Y-156254250D01*
X105080150Y-156413000D01*
X106293000Y-156413000D01*
X106293000Y-156393000D01*
X106547000Y-156393000D01*
X106547000Y-156413000D01*
X106567000Y-156413000D01*
X106567000Y-156667000D01*
X106547000Y-156667000D01*
X106547000Y-157879850D01*
X106705750Y-158038600D01*
X107409910Y-158038600D01*
X107643299Y-157941927D01*
X107821927Y-157763298D01*
X107880772Y-157621233D01*
X108375275Y-157951650D01*
X108812402Y-158038600D01*
X109107598Y-158038600D01*
X109544725Y-157951650D01*
X110040430Y-157620430D01*
X110216382Y-157357100D01*
X110229549Y-157388889D01*
X110651111Y-157810451D01*
X111201910Y-158038600D01*
X111798090Y-158038600D01*
X112348889Y-157810451D01*
X112770451Y-157388889D01*
X112998600Y-156838090D01*
X112998600Y-156241910D01*
X112770451Y-155691111D01*
X112349340Y-155270000D01*
X112770451Y-154848889D01*
X112998600Y-154298090D01*
X112998600Y-153701910D01*
X112770451Y-153151111D01*
X112348889Y-152729549D01*
X111798090Y-152501400D01*
X111201910Y-152501400D01*
X110651111Y-152729549D01*
X110229549Y-153151111D01*
X110216382Y-153182900D01*
X110040430Y-152919570D01*
X109544725Y-152588350D01*
X109107598Y-152501400D01*
X108993402Y-152501400D01*
X114384476Y-147110327D01*
X114447929Y-147067929D01*
X114490327Y-147004476D01*
X114490329Y-147004474D01*
X114615903Y-146816538D01*
X114615904Y-146816537D01*
X114660000Y-146594852D01*
X114660000Y-146594848D01*
X114674888Y-146520001D01*
X114660000Y-146445154D01*
X114660000Y-72204670D01*
X126835000Y-72204670D01*
X126835000Y-72815330D01*
X127068690Y-73379507D01*
X127500493Y-73811310D01*
X127610000Y-73856669D01*
X127610001Y-120195148D01*
X127595112Y-120270000D01*
X127610001Y-120344852D01*
X127654097Y-120566537D01*
X127822072Y-120817929D01*
X127885528Y-120860329D01*
X156015980Y-148990782D01*
X156003000Y-149022119D01*
X156003000Y-149577881D01*
X156215680Y-150091337D01*
X156608663Y-150484320D01*
X156767229Y-150550000D01*
X156608663Y-150615680D01*
X156215680Y-151008663D01*
X156003000Y-151522119D01*
X156003000Y-152077881D01*
X156215680Y-152591337D01*
X156608663Y-152984320D01*
X156767229Y-153050000D01*
X156608663Y-153115680D01*
X156215680Y-153508663D01*
X156003000Y-154022119D01*
X156003000Y-154577881D01*
X156015980Y-154609218D01*
X146135199Y-164490000D01*
X141891122Y-164490000D01*
X141778520Y-164321480D01*
X141536033Y-164159455D01*
X141250000Y-164102560D01*
X140250000Y-164102560D01*
X139963967Y-164159455D01*
X139721480Y-164321480D01*
X139625000Y-164465872D01*
X139528520Y-164321480D01*
X139286033Y-164159455D01*
X139000000Y-164102560D01*
X138427362Y-164102560D01*
X136965331Y-162640530D01*
X136922929Y-162577071D01*
X136671537Y-162409096D01*
X136449852Y-162365000D01*
X136449847Y-162365000D01*
X136375000Y-162350112D01*
X136300153Y-162365000D01*
X135177440Y-162365000D01*
X135177440Y-162245000D01*
X135128157Y-161997235D01*
X134987809Y-161787191D01*
X134777765Y-161646843D01*
X134530000Y-161597560D01*
X133570000Y-161597560D01*
X133322235Y-161646843D01*
X133112191Y-161787191D01*
X132971843Y-161997235D01*
X132922560Y-162245000D01*
X132922560Y-164005000D01*
X132971843Y-164252765D01*
X133112191Y-164462809D01*
X133322235Y-164603157D01*
X133570000Y-164652440D01*
X134530000Y-164652440D01*
X134777765Y-164603157D01*
X134987809Y-164462809D01*
X135128157Y-164252765D01*
X135177440Y-164005000D01*
X135177440Y-163885000D01*
X136060199Y-163885000D01*
X137252560Y-165077362D01*
X137252560Y-165650000D01*
X137309455Y-165936033D01*
X137471480Y-166178520D01*
X137532609Y-166219365D01*
X137361673Y-166390301D01*
X137265000Y-166623690D01*
X137265000Y-166964250D01*
X137423750Y-167123000D01*
X138373000Y-167123000D01*
X138373000Y-167103000D01*
X138627000Y-167103000D01*
X138627000Y-167123000D01*
X139576250Y-167123000D01*
X139625000Y-167074250D01*
X139673750Y-167123000D01*
X140623000Y-167123000D01*
X140623000Y-167103000D01*
X140877000Y-167103000D01*
X140877000Y-167123000D01*
X141826250Y-167123000D01*
X141985000Y-166964250D01*
X141985000Y-166623690D01*
X141888327Y-166390301D01*
X141717391Y-166219365D01*
X141778520Y-166178520D01*
X141891122Y-166010000D01*
X146375153Y-166010000D01*
X146450000Y-166024888D01*
X146524847Y-166010000D01*
X146524852Y-166010000D01*
X146746537Y-165965904D01*
X146997929Y-165797929D01*
X147040331Y-165734470D01*
X157090782Y-155684020D01*
X157122119Y-155697000D01*
X157677881Y-155697000D01*
X158191337Y-155484320D01*
X158584320Y-155091337D01*
X158797000Y-154577881D01*
X158797000Y-154022119D01*
X158584320Y-153508663D01*
X158191337Y-153115680D01*
X158032771Y-153050000D01*
X158191337Y-152984320D01*
X158584320Y-152591337D01*
X158797000Y-152077881D01*
X158797000Y-151522119D01*
X158584320Y-151008663D01*
X158191337Y-150615680D01*
X158032771Y-150550000D01*
X158191337Y-150484320D01*
X158584320Y-150091337D01*
X158797000Y-149577881D01*
X158797000Y-149022119D01*
X158584320Y-148508663D01*
X158191337Y-148115680D01*
X157677881Y-147903000D01*
X157122119Y-147903000D01*
X157090782Y-147915980D01*
X129130000Y-119955199D01*
X129130000Y-73856669D01*
X129239507Y-73811310D01*
X129460658Y-73590159D01*
X142459446Y-73590159D01*
X142545852Y-73846643D01*
X143119336Y-74056458D01*
X143729460Y-74030839D01*
X144174148Y-73846643D01*
X144260554Y-73590159D01*
X143360000Y-72689605D01*
X142459446Y-73590159D01*
X129460658Y-73590159D01*
X129671310Y-73379507D01*
X129905000Y-72815330D01*
X129905000Y-72269336D01*
X141813542Y-72269336D01*
X141839161Y-72879460D01*
X142023357Y-73324148D01*
X142279841Y-73410554D01*
X143180395Y-72510000D01*
X143539605Y-72510000D01*
X144440159Y-73410554D01*
X144696643Y-73324148D01*
X144906458Y-72750664D01*
X144880839Y-72140540D01*
X144696643Y-71695852D01*
X144440159Y-71609446D01*
X143539605Y-72510000D01*
X143180395Y-72510000D01*
X142279841Y-71609446D01*
X142023357Y-71695852D01*
X141813542Y-72269336D01*
X129905000Y-72269336D01*
X129905000Y-72204670D01*
X129671310Y-71640493D01*
X129460658Y-71429841D01*
X142459446Y-71429841D01*
X143360000Y-72330395D01*
X144260554Y-71429841D01*
X144174148Y-71173357D01*
X143600664Y-70963542D01*
X142990540Y-70989161D01*
X142545852Y-71173357D01*
X142459446Y-71429841D01*
X129460658Y-71429841D01*
X129239507Y-71208690D01*
X128675330Y-70975000D01*
X128064670Y-70975000D01*
X127500493Y-71208690D01*
X127068690Y-71640493D01*
X126835000Y-72204670D01*
X114660000Y-72204670D01*
X114660000Y-65504848D01*
X114664978Y-65479823D01*
X123884802Y-56260000D01*
X158340001Y-56260000D01*
X158340000Y-135425148D01*
X158325111Y-135500000D01*
X158340001Y-135574857D01*
X158340000Y-143825153D01*
X158325112Y-143900000D01*
X158340000Y-143974847D01*
X158340000Y-143974851D01*
X158384096Y-144196536D01*
X158552071Y-144447929D01*
X158615530Y-144490331D01*
X161740000Y-147614802D01*
X161740000Y-148364343D01*
X161491337Y-148115680D01*
X160977881Y-147903000D01*
X160422119Y-147903000D01*
X159908663Y-148115680D01*
X159515680Y-148508663D01*
X159303000Y-149022119D01*
X159303000Y-149577881D01*
X159515680Y-150091337D01*
X159908663Y-150484320D01*
X160067229Y-150550000D01*
X159908663Y-150615680D01*
X159515680Y-151008663D01*
X159303000Y-151522119D01*
X159303000Y-152077881D01*
X159515680Y-152591337D01*
X159908663Y-152984320D01*
X160067229Y-153050000D01*
X159908663Y-153115680D01*
X159515680Y-153508663D01*
X159303000Y-154022119D01*
X159303000Y-154577881D01*
X159515680Y-155091337D01*
X159908663Y-155484320D01*
X160422119Y-155697000D01*
X160977881Y-155697000D01*
X161491337Y-155484320D01*
X161884320Y-155091337D01*
X162097000Y-154577881D01*
X162097000Y-154022119D01*
X161884320Y-153508663D01*
X161491337Y-153115680D01*
X161332771Y-153050000D01*
X161491337Y-152984320D01*
X161884320Y-152591337D01*
X162097000Y-152077881D01*
X162097000Y-151522119D01*
X162084020Y-151490782D01*
X162984476Y-150590327D01*
X163047929Y-150547929D01*
X163090327Y-150484476D01*
X163090329Y-150484474D01*
X163215903Y-150296538D01*
X163215904Y-150296537D01*
X163260000Y-150074852D01*
X163260000Y-150074848D01*
X163274888Y-150000001D01*
X163260000Y-149925154D01*
X163260000Y-147374846D01*
X163274888Y-147299999D01*
X163260000Y-147225152D01*
X163260000Y-147225148D01*
X163215904Y-147003463D01*
X163047929Y-146752071D01*
X162984473Y-146709671D01*
X159860000Y-143585199D01*
X159860000Y-139468146D01*
X160030090Y-139538600D01*
X160734250Y-139538600D01*
X160893000Y-139379850D01*
X160893000Y-138167000D01*
X160873000Y-138167000D01*
X160873000Y-137913000D01*
X160893000Y-137913000D01*
X160893000Y-137893000D01*
X161147000Y-137893000D01*
X161147000Y-137913000D01*
X161167000Y-137913000D01*
X161167000Y-138167000D01*
X161147000Y-138167000D01*
X161147000Y-139379850D01*
X161305750Y-139538600D01*
X162009910Y-139538600D01*
X162243299Y-139441927D01*
X162421927Y-139263298D01*
X162480772Y-139121233D01*
X162975275Y-139451650D01*
X163412402Y-139538600D01*
X163707598Y-139538600D01*
X164144725Y-139451650D01*
X164640430Y-139120430D01*
X164816382Y-138857100D01*
X164829549Y-138888889D01*
X165251111Y-139310451D01*
X165801910Y-139538600D01*
X166398090Y-139538600D01*
X166948889Y-139310451D01*
X167370451Y-138888889D01*
X167598600Y-138338090D01*
X167598600Y-137741910D01*
X167370451Y-137191111D01*
X166949340Y-136770000D01*
X167370451Y-136348889D01*
X167598600Y-135798090D01*
X167598600Y-135201910D01*
X167370451Y-134651111D01*
X166948889Y-134229549D01*
X166398090Y-134001400D01*
X165801910Y-134001400D01*
X165251111Y-134229549D01*
X164829549Y-134651111D01*
X164816382Y-134682900D01*
X164640430Y-134419570D01*
X164144725Y-134088350D01*
X163707598Y-134001400D01*
X163412402Y-134001400D01*
X162975275Y-134088350D01*
X162479570Y-134419570D01*
X162290000Y-134703281D01*
X162100430Y-134419570D01*
X161604725Y-134088350D01*
X161167598Y-134001400D01*
X160872402Y-134001400D01*
X160435275Y-134088350D01*
X159939570Y-134419570D01*
X159860000Y-134538655D01*
X159860000Y-57518146D01*
X160030090Y-57588600D01*
X160734250Y-57588600D01*
X160893000Y-57429850D01*
X160893000Y-56217000D01*
X160873000Y-56217000D01*
X160873000Y-55963000D01*
X160893000Y-55963000D01*
X160893000Y-55943000D01*
X161147000Y-55943000D01*
X161147000Y-55963000D01*
X161167000Y-55963000D01*
X161167000Y-56217000D01*
X161147000Y-56217000D01*
X161147000Y-57429850D01*
X161305750Y-57588600D01*
X162009910Y-57588600D01*
X162243299Y-57491927D01*
X162421927Y-57313298D01*
X162480772Y-57171233D01*
X162975275Y-57501650D01*
X163412402Y-57588600D01*
X163707598Y-57588600D01*
X164144725Y-57501650D01*
X164640430Y-57170430D01*
X164816382Y-56907100D01*
X164829549Y-56938889D01*
X165251111Y-57360451D01*
X165801910Y-57588600D01*
X166398090Y-57588600D01*
X166948889Y-57360451D01*
X167370451Y-56938889D01*
X167598600Y-56388090D01*
X167598600Y-55791910D01*
X167370451Y-55241111D01*
X166949340Y-54820000D01*
X167370451Y-54398889D01*
X167598600Y-53848090D01*
X167598600Y-53251910D01*
X167370451Y-52701111D01*
X166948889Y-52279549D01*
X166398090Y-52051400D01*
X165801910Y-52051400D01*
X165251111Y-52279549D01*
X164829549Y-52701111D01*
X164816382Y-52732900D01*
X164640430Y-52469570D01*
X164144725Y-52138350D01*
X163707598Y-52051400D01*
X163412402Y-52051400D01*
X162975275Y-52138350D01*
X162479570Y-52469570D01*
X162290000Y-52753281D01*
X162100430Y-52469570D01*
X161604725Y-52138350D01*
X161167598Y-52051400D01*
X160872402Y-52051400D01*
X160435275Y-52138350D01*
X159939570Y-52469570D01*
X159608350Y-52965275D01*
X159492041Y-53550000D01*
X159567225Y-53927974D01*
X158755199Y-54740000D01*
X123644847Y-54740000D01*
X123570000Y-54725112D01*
X123495153Y-54740000D01*
X123495148Y-54740000D01*
X123273463Y-54784096D01*
X123022071Y-54952071D01*
X122979671Y-55015527D01*
X113285530Y-64709669D01*
X113285527Y-64709671D01*
X113222071Y-64752071D01*
X113179672Y-64815526D01*
X106797974Y-71197225D01*
X106567598Y-71151400D01*
X106272402Y-71151400D01*
X105835275Y-71238350D01*
X105339570Y-71569570D01*
X105008350Y-72065275D01*
X104892041Y-72650000D01*
X101783696Y-72650000D01*
X101781470Y-71500493D01*
X107082685Y-69651286D01*
X107170067Y-69633728D01*
X107266412Y-69569082D01*
X107366427Y-69510215D01*
X107379008Y-69493532D01*
X107396357Y-69481891D01*
X107460632Y-69385292D01*
X107530504Y-69292636D01*
X107535743Y-69272407D01*
X107547316Y-69255014D01*
X107569731Y-69141173D01*
X107598826Y-69028830D01*
X107586451Y-68940555D01*
X107529222Y-39429763D01*
X107722276Y-39895835D01*
X108604165Y-40777724D01*
X109756410Y-41255000D01*
X111003590Y-41255000D01*
X112155835Y-40777724D01*
X113037724Y-39895835D01*
X113515000Y-38743590D01*
X113515000Y-37496410D01*
X113037724Y-36344165D01*
X112155835Y-35462276D01*
X111003590Y-34985000D01*
X110942998Y-34985000D01*
X147321642Y-22233227D01*
X147903639Y-22231879D01*
X161759559Y-29335000D01*
G04 #@! TD*
M02*
