G04 #@! TF.GenerationSoftware,KiCad,Pcbnew,(5.0.0-3-g5ebb6b6)*
G04 #@! TF.CreationDate,2019-05-30T13:54:23-04:00*
G04 #@! TF.ProjectId,HTHBadgeFinal,485448426164676546696E616C2E6B69,rev?*
G04 #@! TF.SameCoordinates,Original*
G04 #@! TF.FileFunction,Soldermask,Bot*
G04 #@! TF.FilePolarity,Negative*
%FSLAX46Y46*%
G04 Gerber Fmt 4.6, Leading zero omitted, Abs format (unit mm)*
G04 Created by KiCad (PCBNEW (5.0.0-3-g5ebb6b6)) date Thursday, May 30, 2019 at 01:54:23 PM*
%MOMM*%
%LPD*%
G01*
G04 APERTURE LIST*
%ADD10C,2.127200*%
%ADD11O,2.127200X2.127200*%
%ADD12R,2.127200X2.127200*%
%ADD13C,0.100000*%
%ADD14C,1.300000*%
%ADD15C,1.400000*%
%ADD16C,1.924000*%
%ADD17C,2.200000*%
%ADD18R,1.360000X2.160000*%
%ADD19R,3.660000X2.160000*%
%ADD20C,0.800000*%
%ADD21C,1.350000*%
%ADD22C,1.350000*%
%ADD23C,1.400000*%
%ADD24C,5.400000*%
G04 APERTURE END LIST*
D10*
G04 #@! TO.C,X3*
X166100000Y-53550000D03*
X166100000Y-56090000D03*
D11*
X163560000Y-53550000D03*
X163560000Y-56090000D03*
X161020000Y-53550000D03*
D12*
X161020000Y-56090000D03*
G04 #@! TD*
D10*
G04 #@! TO.C,X2*
X111500000Y-72650000D03*
X111500000Y-75190000D03*
D11*
X108960000Y-72650000D03*
X108960000Y-75190000D03*
X106420000Y-72650000D03*
D12*
X106420000Y-75190000D03*
G04 #@! TD*
D10*
G04 #@! TO.C,X4*
X166100000Y-135500000D03*
X166100000Y-138040000D03*
D11*
X163560000Y-135500000D03*
X163560000Y-138040000D03*
X161020000Y-135500000D03*
D12*
X161020000Y-138040000D03*
G04 #@! TD*
D10*
G04 #@! TO.C,X1*
X111500000Y-154000000D03*
X111500000Y-156540000D03*
D11*
X108960000Y-154000000D03*
X108960000Y-156540000D03*
X106420000Y-154000000D03*
D12*
X106420000Y-156540000D03*
G04 #@! TD*
D13*
G04 #@! TO.C,D1*
G36*
X121057742Y-163950626D02*
X121070362Y-163952498D01*
X121082737Y-163955598D01*
X121094749Y-163959896D01*
X121106282Y-163965350D01*
X121117224Y-163971909D01*
X121127471Y-163979509D01*
X121136924Y-163988076D01*
X121145491Y-163997529D01*
X121153091Y-164007776D01*
X121159650Y-164018718D01*
X121165104Y-164030251D01*
X121169402Y-164042263D01*
X121172502Y-164054638D01*
X121174374Y-164067258D01*
X121175000Y-164080000D01*
X121175000Y-165120000D01*
X121174374Y-165132742D01*
X121172502Y-165145362D01*
X121169402Y-165157737D01*
X121165104Y-165169749D01*
X121159650Y-165181282D01*
X121153091Y-165192224D01*
X121145491Y-165202471D01*
X121136924Y-165211924D01*
X121127471Y-165220491D01*
X121117224Y-165228091D01*
X121106282Y-165234650D01*
X121094749Y-165240104D01*
X121082737Y-165244402D01*
X121070362Y-165247502D01*
X121057742Y-165249374D01*
X121045000Y-165250000D01*
X119955000Y-165250000D01*
X119942258Y-165249374D01*
X119929638Y-165247502D01*
X119917263Y-165244402D01*
X119905251Y-165240104D01*
X119893718Y-165234650D01*
X119882776Y-165228091D01*
X119872529Y-165220491D01*
X119863076Y-165211924D01*
X119854509Y-165202471D01*
X119846909Y-165192224D01*
X119840350Y-165181282D01*
X119834896Y-165169749D01*
X119830598Y-165157737D01*
X119827498Y-165145362D01*
X119825626Y-165132742D01*
X119825000Y-165120000D01*
X119825000Y-164080000D01*
X119825626Y-164067258D01*
X119827498Y-164054638D01*
X119830598Y-164042263D01*
X119834896Y-164030251D01*
X119840350Y-164018718D01*
X119846909Y-164007776D01*
X119854509Y-163997529D01*
X119863076Y-163988076D01*
X119872529Y-163979509D01*
X119882776Y-163971909D01*
X119893718Y-163965350D01*
X119905251Y-163959896D01*
X119917263Y-163955598D01*
X119929638Y-163952498D01*
X119942258Y-163950626D01*
X119955000Y-163950000D01*
X121045000Y-163950000D01*
X121057742Y-163950626D01*
X121057742Y-163950626D01*
G37*
D14*
X120500000Y-164600000D03*
D13*
G36*
X121057742Y-167100626D02*
X121070362Y-167102498D01*
X121082737Y-167105598D01*
X121094749Y-167109896D01*
X121106282Y-167115350D01*
X121117224Y-167121909D01*
X121127471Y-167129509D01*
X121136924Y-167138076D01*
X121145491Y-167147529D01*
X121153091Y-167157776D01*
X121159650Y-167168718D01*
X121165104Y-167180251D01*
X121169402Y-167192263D01*
X121172502Y-167204638D01*
X121174374Y-167217258D01*
X121175000Y-167230000D01*
X121175000Y-168270000D01*
X121174374Y-168282742D01*
X121172502Y-168295362D01*
X121169402Y-168307737D01*
X121165104Y-168319749D01*
X121159650Y-168331282D01*
X121153091Y-168342224D01*
X121145491Y-168352471D01*
X121136924Y-168361924D01*
X121127471Y-168370491D01*
X121117224Y-168378091D01*
X121106282Y-168384650D01*
X121094749Y-168390104D01*
X121082737Y-168394402D01*
X121070362Y-168397502D01*
X121057742Y-168399374D01*
X121045000Y-168400000D01*
X119955000Y-168400000D01*
X119942258Y-168399374D01*
X119929638Y-168397502D01*
X119917263Y-168394402D01*
X119905251Y-168390104D01*
X119893718Y-168384650D01*
X119882776Y-168378091D01*
X119872529Y-168370491D01*
X119863076Y-168361924D01*
X119854509Y-168352471D01*
X119846909Y-168342224D01*
X119840350Y-168331282D01*
X119834896Y-168319749D01*
X119830598Y-168307737D01*
X119827498Y-168295362D01*
X119825626Y-168282742D01*
X119825000Y-168270000D01*
X119825000Y-167230000D01*
X119825626Y-167217258D01*
X119827498Y-167204638D01*
X119830598Y-167192263D01*
X119834896Y-167180251D01*
X119840350Y-167168718D01*
X119846909Y-167157776D01*
X119854509Y-167147529D01*
X119863076Y-167138076D01*
X119872529Y-167129509D01*
X119882776Y-167121909D01*
X119893718Y-167115350D01*
X119905251Y-167109896D01*
X119917263Y-167105598D01*
X119929638Y-167102498D01*
X119942258Y-167100626D01*
X119955000Y-167100000D01*
X121045000Y-167100000D01*
X121057742Y-167100626D01*
X121057742Y-167100626D01*
G37*
D14*
X120500000Y-167750000D03*
G04 #@! TD*
D13*
G04 #@! TO.C,C4*
G36*
X141423722Y-166550674D02*
X141437313Y-166552690D01*
X141450640Y-166556028D01*
X141463576Y-166560657D01*
X141475996Y-166566531D01*
X141487780Y-166573594D01*
X141498815Y-166581779D01*
X141508995Y-166591005D01*
X141518221Y-166601185D01*
X141526406Y-166612220D01*
X141533469Y-166624004D01*
X141539343Y-166636424D01*
X141543972Y-166649360D01*
X141547310Y-166662687D01*
X141549326Y-166676278D01*
X141550000Y-166690000D01*
X141550000Y-167810000D01*
X141549326Y-167823722D01*
X141547310Y-167837313D01*
X141543972Y-167850640D01*
X141539343Y-167863576D01*
X141533469Y-167875996D01*
X141526406Y-167887780D01*
X141518221Y-167898815D01*
X141508995Y-167908995D01*
X141498815Y-167918221D01*
X141487780Y-167926406D01*
X141475996Y-167933469D01*
X141463576Y-167939343D01*
X141450640Y-167943972D01*
X141437313Y-167947310D01*
X141423722Y-167949326D01*
X141410000Y-167950000D01*
X140090000Y-167950000D01*
X140076278Y-167949326D01*
X140062687Y-167947310D01*
X140049360Y-167943972D01*
X140036424Y-167939343D01*
X140024004Y-167933469D01*
X140012220Y-167926406D01*
X140001185Y-167918221D01*
X139991005Y-167908995D01*
X139981779Y-167898815D01*
X139973594Y-167887780D01*
X139966531Y-167875996D01*
X139960657Y-167863576D01*
X139956028Y-167850640D01*
X139952690Y-167837313D01*
X139950674Y-167823722D01*
X139950000Y-167810000D01*
X139950000Y-166690000D01*
X139950674Y-166676278D01*
X139952690Y-166662687D01*
X139956028Y-166649360D01*
X139960657Y-166636424D01*
X139966531Y-166624004D01*
X139973594Y-166612220D01*
X139981779Y-166601185D01*
X139991005Y-166591005D01*
X140001185Y-166581779D01*
X140012220Y-166573594D01*
X140024004Y-166566531D01*
X140036424Y-166560657D01*
X140049360Y-166556028D01*
X140062687Y-166552690D01*
X140076278Y-166550674D01*
X140090000Y-166550000D01*
X141410000Y-166550000D01*
X141423722Y-166550674D01*
X141423722Y-166550674D01*
G37*
D15*
X140750000Y-167250000D03*
D13*
G36*
X141423722Y-164550674D02*
X141437313Y-164552690D01*
X141450640Y-164556028D01*
X141463576Y-164560657D01*
X141475996Y-164566531D01*
X141487780Y-164573594D01*
X141498815Y-164581779D01*
X141508995Y-164591005D01*
X141518221Y-164601185D01*
X141526406Y-164612220D01*
X141533469Y-164624004D01*
X141539343Y-164636424D01*
X141543972Y-164649360D01*
X141547310Y-164662687D01*
X141549326Y-164676278D01*
X141550000Y-164690000D01*
X141550000Y-165810000D01*
X141549326Y-165823722D01*
X141547310Y-165837313D01*
X141543972Y-165850640D01*
X141539343Y-165863576D01*
X141533469Y-165875996D01*
X141526406Y-165887780D01*
X141518221Y-165898815D01*
X141508995Y-165908995D01*
X141498815Y-165918221D01*
X141487780Y-165926406D01*
X141475996Y-165933469D01*
X141463576Y-165939343D01*
X141450640Y-165943972D01*
X141437313Y-165947310D01*
X141423722Y-165949326D01*
X141410000Y-165950000D01*
X140090000Y-165950000D01*
X140076278Y-165949326D01*
X140062687Y-165947310D01*
X140049360Y-165943972D01*
X140036424Y-165939343D01*
X140024004Y-165933469D01*
X140012220Y-165926406D01*
X140001185Y-165918221D01*
X139991005Y-165908995D01*
X139981779Y-165898815D01*
X139973594Y-165887780D01*
X139966531Y-165875996D01*
X139960657Y-165863576D01*
X139956028Y-165850640D01*
X139952690Y-165837313D01*
X139950674Y-165823722D01*
X139950000Y-165810000D01*
X139950000Y-164690000D01*
X139950674Y-164676278D01*
X139952690Y-164662687D01*
X139956028Y-164649360D01*
X139960657Y-164636424D01*
X139966531Y-164624004D01*
X139973594Y-164612220D01*
X139981779Y-164601185D01*
X139991005Y-164591005D01*
X140001185Y-164581779D01*
X140012220Y-164573594D01*
X140024004Y-164566531D01*
X140036424Y-164560657D01*
X140049360Y-164556028D01*
X140062687Y-164552690D01*
X140076278Y-164550674D01*
X140090000Y-164550000D01*
X141410000Y-164550000D01*
X141423722Y-164550674D01*
X141423722Y-164550674D01*
G37*
D15*
X140750000Y-165250000D03*
G04 #@! TD*
D13*
G04 #@! TO.C,C3*
G36*
X139173722Y-164550674D02*
X139187313Y-164552690D01*
X139200640Y-164556028D01*
X139213576Y-164560657D01*
X139225996Y-164566531D01*
X139237780Y-164573594D01*
X139248815Y-164581779D01*
X139258995Y-164591005D01*
X139268221Y-164601185D01*
X139276406Y-164612220D01*
X139283469Y-164624004D01*
X139289343Y-164636424D01*
X139293972Y-164649360D01*
X139297310Y-164662687D01*
X139299326Y-164676278D01*
X139300000Y-164690000D01*
X139300000Y-165810000D01*
X139299326Y-165823722D01*
X139297310Y-165837313D01*
X139293972Y-165850640D01*
X139289343Y-165863576D01*
X139283469Y-165875996D01*
X139276406Y-165887780D01*
X139268221Y-165898815D01*
X139258995Y-165908995D01*
X139248815Y-165918221D01*
X139237780Y-165926406D01*
X139225996Y-165933469D01*
X139213576Y-165939343D01*
X139200640Y-165943972D01*
X139187313Y-165947310D01*
X139173722Y-165949326D01*
X139160000Y-165950000D01*
X137840000Y-165950000D01*
X137826278Y-165949326D01*
X137812687Y-165947310D01*
X137799360Y-165943972D01*
X137786424Y-165939343D01*
X137774004Y-165933469D01*
X137762220Y-165926406D01*
X137751185Y-165918221D01*
X137741005Y-165908995D01*
X137731779Y-165898815D01*
X137723594Y-165887780D01*
X137716531Y-165875996D01*
X137710657Y-165863576D01*
X137706028Y-165850640D01*
X137702690Y-165837313D01*
X137700674Y-165823722D01*
X137700000Y-165810000D01*
X137700000Y-164690000D01*
X137700674Y-164676278D01*
X137702690Y-164662687D01*
X137706028Y-164649360D01*
X137710657Y-164636424D01*
X137716531Y-164624004D01*
X137723594Y-164612220D01*
X137731779Y-164601185D01*
X137741005Y-164591005D01*
X137751185Y-164581779D01*
X137762220Y-164573594D01*
X137774004Y-164566531D01*
X137786424Y-164560657D01*
X137799360Y-164556028D01*
X137812687Y-164552690D01*
X137826278Y-164550674D01*
X137840000Y-164550000D01*
X139160000Y-164550000D01*
X139173722Y-164550674D01*
X139173722Y-164550674D01*
G37*
D15*
X138500000Y-165250000D03*
D13*
G36*
X139173722Y-166550674D02*
X139187313Y-166552690D01*
X139200640Y-166556028D01*
X139213576Y-166560657D01*
X139225996Y-166566531D01*
X139237780Y-166573594D01*
X139248815Y-166581779D01*
X139258995Y-166591005D01*
X139268221Y-166601185D01*
X139276406Y-166612220D01*
X139283469Y-166624004D01*
X139289343Y-166636424D01*
X139293972Y-166649360D01*
X139297310Y-166662687D01*
X139299326Y-166676278D01*
X139300000Y-166690000D01*
X139300000Y-167810000D01*
X139299326Y-167823722D01*
X139297310Y-167837313D01*
X139293972Y-167850640D01*
X139289343Y-167863576D01*
X139283469Y-167875996D01*
X139276406Y-167887780D01*
X139268221Y-167898815D01*
X139258995Y-167908995D01*
X139248815Y-167918221D01*
X139237780Y-167926406D01*
X139225996Y-167933469D01*
X139213576Y-167939343D01*
X139200640Y-167943972D01*
X139187313Y-167947310D01*
X139173722Y-167949326D01*
X139160000Y-167950000D01*
X137840000Y-167950000D01*
X137826278Y-167949326D01*
X137812687Y-167947310D01*
X137799360Y-167943972D01*
X137786424Y-167939343D01*
X137774004Y-167933469D01*
X137762220Y-167926406D01*
X137751185Y-167918221D01*
X137741005Y-167908995D01*
X137731779Y-167898815D01*
X137723594Y-167887780D01*
X137716531Y-167875996D01*
X137710657Y-167863576D01*
X137706028Y-167850640D01*
X137702690Y-167837313D01*
X137700674Y-167823722D01*
X137700000Y-167810000D01*
X137700000Y-166690000D01*
X137700674Y-166676278D01*
X137702690Y-166662687D01*
X137706028Y-166649360D01*
X137710657Y-166636424D01*
X137716531Y-166624004D01*
X137723594Y-166612220D01*
X137731779Y-166601185D01*
X137741005Y-166591005D01*
X137751185Y-166581779D01*
X137762220Y-166573594D01*
X137774004Y-166566531D01*
X137786424Y-166560657D01*
X137799360Y-166556028D01*
X137812687Y-166552690D01*
X137826278Y-166550674D01*
X137840000Y-166550000D01*
X139160000Y-166550000D01*
X139173722Y-166550674D01*
X139173722Y-166550674D01*
G37*
D15*
X138500000Y-167250000D03*
G04 #@! TD*
D13*
G04 #@! TO.C,C2*
G36*
X125773722Y-166540674D02*
X125787313Y-166542690D01*
X125800640Y-166546028D01*
X125813576Y-166550657D01*
X125825996Y-166556531D01*
X125837780Y-166563594D01*
X125848815Y-166571779D01*
X125858995Y-166581005D01*
X125868221Y-166591185D01*
X125876406Y-166602220D01*
X125883469Y-166614004D01*
X125889343Y-166626424D01*
X125893972Y-166639360D01*
X125897310Y-166652687D01*
X125899326Y-166666278D01*
X125900000Y-166680000D01*
X125900000Y-167800000D01*
X125899326Y-167813722D01*
X125897310Y-167827313D01*
X125893972Y-167840640D01*
X125889343Y-167853576D01*
X125883469Y-167865996D01*
X125876406Y-167877780D01*
X125868221Y-167888815D01*
X125858995Y-167898995D01*
X125848815Y-167908221D01*
X125837780Y-167916406D01*
X125825996Y-167923469D01*
X125813576Y-167929343D01*
X125800640Y-167933972D01*
X125787313Y-167937310D01*
X125773722Y-167939326D01*
X125760000Y-167940000D01*
X124440000Y-167940000D01*
X124426278Y-167939326D01*
X124412687Y-167937310D01*
X124399360Y-167933972D01*
X124386424Y-167929343D01*
X124374004Y-167923469D01*
X124362220Y-167916406D01*
X124351185Y-167908221D01*
X124341005Y-167898995D01*
X124331779Y-167888815D01*
X124323594Y-167877780D01*
X124316531Y-167865996D01*
X124310657Y-167853576D01*
X124306028Y-167840640D01*
X124302690Y-167827313D01*
X124300674Y-167813722D01*
X124300000Y-167800000D01*
X124300000Y-166680000D01*
X124300674Y-166666278D01*
X124302690Y-166652687D01*
X124306028Y-166639360D01*
X124310657Y-166626424D01*
X124316531Y-166614004D01*
X124323594Y-166602220D01*
X124331779Y-166591185D01*
X124341005Y-166581005D01*
X124351185Y-166571779D01*
X124362220Y-166563594D01*
X124374004Y-166556531D01*
X124386424Y-166550657D01*
X124399360Y-166546028D01*
X124412687Y-166542690D01*
X124426278Y-166540674D01*
X124440000Y-166540000D01*
X125760000Y-166540000D01*
X125773722Y-166540674D01*
X125773722Y-166540674D01*
G37*
D15*
X125100000Y-167240000D03*
D13*
G36*
X125773722Y-164540674D02*
X125787313Y-164542690D01*
X125800640Y-164546028D01*
X125813576Y-164550657D01*
X125825996Y-164556531D01*
X125837780Y-164563594D01*
X125848815Y-164571779D01*
X125858995Y-164581005D01*
X125868221Y-164591185D01*
X125876406Y-164602220D01*
X125883469Y-164614004D01*
X125889343Y-164626424D01*
X125893972Y-164639360D01*
X125897310Y-164652687D01*
X125899326Y-164666278D01*
X125900000Y-164680000D01*
X125900000Y-165800000D01*
X125899326Y-165813722D01*
X125897310Y-165827313D01*
X125893972Y-165840640D01*
X125889343Y-165853576D01*
X125883469Y-165865996D01*
X125876406Y-165877780D01*
X125868221Y-165888815D01*
X125858995Y-165898995D01*
X125848815Y-165908221D01*
X125837780Y-165916406D01*
X125825996Y-165923469D01*
X125813576Y-165929343D01*
X125800640Y-165933972D01*
X125787313Y-165937310D01*
X125773722Y-165939326D01*
X125760000Y-165940000D01*
X124440000Y-165940000D01*
X124426278Y-165939326D01*
X124412687Y-165937310D01*
X124399360Y-165933972D01*
X124386424Y-165929343D01*
X124374004Y-165923469D01*
X124362220Y-165916406D01*
X124351185Y-165908221D01*
X124341005Y-165898995D01*
X124331779Y-165888815D01*
X124323594Y-165877780D01*
X124316531Y-165865996D01*
X124310657Y-165853576D01*
X124306028Y-165840640D01*
X124302690Y-165827313D01*
X124300674Y-165813722D01*
X124300000Y-165800000D01*
X124300000Y-164680000D01*
X124300674Y-164666278D01*
X124302690Y-164652687D01*
X124306028Y-164639360D01*
X124310657Y-164626424D01*
X124316531Y-164614004D01*
X124323594Y-164602220D01*
X124331779Y-164591185D01*
X124341005Y-164581005D01*
X124351185Y-164571779D01*
X124362220Y-164563594D01*
X124374004Y-164556531D01*
X124386424Y-164550657D01*
X124399360Y-164546028D01*
X124412687Y-164542690D01*
X124426278Y-164540674D01*
X124440000Y-164540000D01*
X125760000Y-164540000D01*
X125773722Y-164540674D01*
X125773722Y-164540674D01*
G37*
D15*
X125100000Y-165240000D03*
G04 #@! TD*
D13*
G04 #@! TO.C,C1*
G36*
X123593722Y-164550674D02*
X123607313Y-164552690D01*
X123620640Y-164556028D01*
X123633576Y-164560657D01*
X123645996Y-164566531D01*
X123657780Y-164573594D01*
X123668815Y-164581779D01*
X123678995Y-164591005D01*
X123688221Y-164601185D01*
X123696406Y-164612220D01*
X123703469Y-164624004D01*
X123709343Y-164636424D01*
X123713972Y-164649360D01*
X123717310Y-164662687D01*
X123719326Y-164676278D01*
X123720000Y-164690000D01*
X123720000Y-165810000D01*
X123719326Y-165823722D01*
X123717310Y-165837313D01*
X123713972Y-165850640D01*
X123709343Y-165863576D01*
X123703469Y-165875996D01*
X123696406Y-165887780D01*
X123688221Y-165898815D01*
X123678995Y-165908995D01*
X123668815Y-165918221D01*
X123657780Y-165926406D01*
X123645996Y-165933469D01*
X123633576Y-165939343D01*
X123620640Y-165943972D01*
X123607313Y-165947310D01*
X123593722Y-165949326D01*
X123580000Y-165950000D01*
X122260000Y-165950000D01*
X122246278Y-165949326D01*
X122232687Y-165947310D01*
X122219360Y-165943972D01*
X122206424Y-165939343D01*
X122194004Y-165933469D01*
X122182220Y-165926406D01*
X122171185Y-165918221D01*
X122161005Y-165908995D01*
X122151779Y-165898815D01*
X122143594Y-165887780D01*
X122136531Y-165875996D01*
X122130657Y-165863576D01*
X122126028Y-165850640D01*
X122122690Y-165837313D01*
X122120674Y-165823722D01*
X122120000Y-165810000D01*
X122120000Y-164690000D01*
X122120674Y-164676278D01*
X122122690Y-164662687D01*
X122126028Y-164649360D01*
X122130657Y-164636424D01*
X122136531Y-164624004D01*
X122143594Y-164612220D01*
X122151779Y-164601185D01*
X122161005Y-164591005D01*
X122171185Y-164581779D01*
X122182220Y-164573594D01*
X122194004Y-164566531D01*
X122206424Y-164560657D01*
X122219360Y-164556028D01*
X122232687Y-164552690D01*
X122246278Y-164550674D01*
X122260000Y-164550000D01*
X123580000Y-164550000D01*
X123593722Y-164550674D01*
X123593722Y-164550674D01*
G37*
D15*
X122920000Y-165250000D03*
D13*
G36*
X123593722Y-166550674D02*
X123607313Y-166552690D01*
X123620640Y-166556028D01*
X123633576Y-166560657D01*
X123645996Y-166566531D01*
X123657780Y-166573594D01*
X123668815Y-166581779D01*
X123678995Y-166591005D01*
X123688221Y-166601185D01*
X123696406Y-166612220D01*
X123703469Y-166624004D01*
X123709343Y-166636424D01*
X123713972Y-166649360D01*
X123717310Y-166662687D01*
X123719326Y-166676278D01*
X123720000Y-166690000D01*
X123720000Y-167810000D01*
X123719326Y-167823722D01*
X123717310Y-167837313D01*
X123713972Y-167850640D01*
X123709343Y-167863576D01*
X123703469Y-167875996D01*
X123696406Y-167887780D01*
X123688221Y-167898815D01*
X123678995Y-167908995D01*
X123668815Y-167918221D01*
X123657780Y-167926406D01*
X123645996Y-167933469D01*
X123633576Y-167939343D01*
X123620640Y-167943972D01*
X123607313Y-167947310D01*
X123593722Y-167949326D01*
X123580000Y-167950000D01*
X122260000Y-167950000D01*
X122246278Y-167949326D01*
X122232687Y-167947310D01*
X122219360Y-167943972D01*
X122206424Y-167939343D01*
X122194004Y-167933469D01*
X122182220Y-167926406D01*
X122171185Y-167918221D01*
X122161005Y-167908995D01*
X122151779Y-167898815D01*
X122143594Y-167887780D01*
X122136531Y-167875996D01*
X122130657Y-167863576D01*
X122126028Y-167850640D01*
X122122690Y-167837313D01*
X122120674Y-167823722D01*
X122120000Y-167810000D01*
X122120000Y-166690000D01*
X122120674Y-166676278D01*
X122122690Y-166662687D01*
X122126028Y-166649360D01*
X122130657Y-166636424D01*
X122136531Y-166624004D01*
X122143594Y-166612220D01*
X122151779Y-166601185D01*
X122161005Y-166591005D01*
X122171185Y-166581779D01*
X122182220Y-166573594D01*
X122194004Y-166566531D01*
X122206424Y-166560657D01*
X122219360Y-166556028D01*
X122232687Y-166552690D01*
X122246278Y-166550674D01*
X122260000Y-166550000D01*
X123580000Y-166550000D01*
X123593722Y-166550674D01*
X123593722Y-166550674D01*
G37*
D15*
X122920000Y-167250000D03*
G04 #@! TD*
D16*
G04 #@! TO.C,SW1*
X160700000Y-149300000D03*
X160700000Y-151800000D03*
X160700000Y-154300000D03*
X157400000Y-149300000D03*
X157400000Y-151800000D03*
X157400000Y-154300000D03*
G04 #@! TD*
D17*
G04 #@! TO.C,B1*
X143360000Y-72510000D03*
X128370000Y-72510000D03*
G04 #@! TD*
D18*
G04 #@! TO.C,U1*
X129450000Y-163125000D03*
X131750000Y-163125000D03*
X134050000Y-163125000D03*
D19*
X131750000Y-169375000D03*
G04 #@! TD*
D20*
G04 #@! TO.C,J1*
X116910000Y-174720000D03*
D13*
G36*
X117668834Y-174128565D02*
X116860774Y-175680834D01*
X116151166Y-175311435D01*
X116959226Y-173759166D01*
X117668834Y-174128565D01*
X117668834Y-174128565D01*
G37*
D20*
X116333443Y-174419863D03*
D13*
G36*
X117092277Y-173828428D02*
X116284217Y-175380697D01*
X115574609Y-175011298D01*
X116382669Y-173459029D01*
X117092277Y-173828428D01*
X117092277Y-173828428D01*
G37*
D20*
X115756886Y-174119727D03*
D13*
G36*
X116515720Y-173528292D02*
X115707660Y-175080561D01*
X114998052Y-174711162D01*
X115806112Y-173158893D01*
X116515720Y-173528292D01*
X116515720Y-173528292D01*
G37*
D20*
X117486557Y-175020137D03*
D13*
G36*
X118245391Y-174428702D02*
X117437331Y-175980971D01*
X116727723Y-175611572D01*
X117535783Y-174059303D01*
X118245391Y-174428702D01*
X118245391Y-174428702D01*
G37*
D20*
X118063114Y-175320273D03*
D13*
G36*
X118821948Y-174728838D02*
X118013888Y-176281107D01*
X117304280Y-175911708D01*
X118112340Y-174359439D01*
X118821948Y-174728838D01*
X118821948Y-174728838D01*
G37*
D21*
X114692473Y-173565628D03*
D22*
X114825525Y-173634890D02*
X114559421Y-173496366D01*
D21*
X119127527Y-175874372D03*
D22*
X119260579Y-175943634D02*
X118994475Y-175805110D01*
D15*
X118767817Y-178731049D03*
D23*
X118640836Y-178974977D02*
X118894798Y-178487121D01*
D15*
X112558741Y-175498809D03*
D23*
X112431760Y-175742737D02*
X112685722Y-175254881D01*
G04 #@! TD*
D24*
G04 #@! TO.C,REF\002A\002A*
X110380000Y-38120000D03*
G04 #@! TD*
G04 #@! TO.C,REF\002A\002A*
X161320000Y-32470000D03*
G04 #@! TD*
M02*
